<?xml version="1.0" encoding="utf-8"?>
<!-- Generator: Adobe Illustrator 23.0.0, SVG Export Plug-In . SVG Version: 6.00 Build 0)  -->
<svg version="1.1" id="Capa_1" xmlns="http://www.w3.org/2000/svg" xmlns:xlink="http://www.w3.org/1999/xlink" x="0px" y="0px"
	 viewBox="0 0 595.28 841.89" style="enable-background:new 0 0 595.28 841.89;" xml:space="preserve">
<style type="text/css">
	.st0{fill:#FFFFFF;}
</style>
<circle cx="297.64" cy="420.94" r="289.13"/>
<g>
	<path class="st0" d="M556.4,423.07c0.18,5.08,0.44,10.15,0.51,15.23c0.06,4.03-0.04,8.06-0.21,12.09
		c-0.19,4.53-1.31,8.91-2.33,13.31c-1.55,6.67-3.03,13.36-4.55,20.03c-1.93,8.48-3.82,16.97-5.83,25.44
		c-1.01,4.24-2.47,8.37-4.52,12.21c-1.74,3.26-3.85,6.33-5.8,9.48c-1.06,1.71-2.15,3.4-3.21,5.12c-0.94,1.52-1.51,3.2-1.95,4.92
		c-0.47,1.84-2.24,4.88-3.63,6.11c-1.68,1.49-2.69,3.4-3.51,5.43c-0.64,1.57-1.26,3.14-1.88,4.71c-1.55,3.94-4.06,7.32-6.35,10.83
		c-1.98,3.04-4.05,6.02-6.03,9.06c-4.17,6.37-9.07,12.15-14.45,17.5c-5.89,5.85-11.91,11.57-17.92,17.31
		c-3.5,3.34-7.06,6.62-10.63,9.87c-8.86,8.07-18.56,14.97-29.08,20.72c-6.29,3.44-12.72,6.62-19.19,9.72
		c-3.05,1.46-6.07,3-9.17,4.37c-4.95,2.19-10.08,3.86-15.27,5.39c-9.67,2.85-19.38,5.51-29.18,7.89c-2.89,0.7-5.84,1.18-8.78,1.67
		c-3.5,0.58-7.01,1.1-10.53,1.55c-5.03,0.65-10.07,1.31-15.12,1.78c-6.98,0.65-13.98,1.19-20.98,1.64
		c-7.65,0.49-15.32,0.57-22.97,0.24c-2.81-0.12-5.61-0.58-8.41-0.95c-3.67-0.49-7.33-1.09-11.03-1.34
		c-3.7-0.26-7.39-0.66-11.06-1.16c-2.23-0.31-4.44-0.83-6.61-1.44c-10.79-3.02-21.5-6.3-32.14-9.8c-6.81-2.25-13.61-4.55-20.4-6.85
		c-2.3-0.78-4.45-1.84-6.6-2.98c-6.12-3.25-12.3-6.39-18.47-9.56c-5.38-2.76-10.81-5.41-16.13-8.28c-3.76-2.03-7.26-4.51-10.4-7.44
		c-4.49-4.17-9.2-8.09-13.92-12c-3.91-3.23-7.83-6.48-11.56-9.91c-2.54-2.34-4.85-4.95-7.13-7.57c-6.3-7.24-12.16-14.83-17.91-22.51
		c-2.13-2.84-4.23-5.69-6.42-8.49c-2.99-3.83-5.21-8.14-7.82-12.21c-1.74-2.71-3.47-5.44-5-8.27c-1.56-2.9-3.01-5.89-4.25-8.94
		c-2.34-5.75-4.45-11.59-6.72-17.37c-1.8-4.58-3.68-9.12-5.55-13.67c-2.27-5.51-4.68-10.98-6.84-16.53
		c-2.51-6.47-4.39-13.14-5.87-19.93c-1.4-6.39-2.36-12.84-3.09-19.33c-0.57-5.13-0.73-10.29-0.65-15.45
		c0.06-4.11,0.06-8.23,0.01-12.34c-0.03-2.25-0.15-4.51-0.37-6.75c-0.3-3.07-0.21-6.13,0.15-9.17c0.6-5.04,1.34-10.07,2.09-15.09
		c0.71-4.78,1.53-9.55,2.27-14.33c0.5-3.19,0.9-6.37,0.86-9.62c-0.02-1.84,0.3-3.7,0.66-5.51c0.73-3.72,1.78-7.36,3-10.95
		c2.29-6.71,4.61-13.42,6.87-20.14c1.13-3.36,1.92-6.82,2.85-10.24c1.84-6.78,4.24-13.37,7.85-19.45c1.57-2.63,3.15-5.25,4.7-7.9
		c1.58-2.71,3.08-5.47,4.7-8.16c0.95-1.59,1.95-3.17,3.12-4.6c3.89-4.77,7.1-9.98,10.34-15.18c3.25-5.22,6.85-10.17,11.25-14.48
		c1.96-1.91,3.99-3.77,6.11-5.49c4.14-3.37,7.94-7.09,11.58-10.97c5.24-5.59,10.49-11.17,16.73-15.69c1.44-1.04,2.94-1.98,4.35-3.06
		c2.88-2.19,5.69-4.48,8.59-6.65c3.29-2.47,6.72-4.72,10.37-6.64c2.63-1.39,5.23-2.86,7.75-4.44c3.29-2.05,6.69-3.88,10.16-5.6
		c7.45-3.68,15.03-7.06,22.73-10.18c7.78-3.15,15.68-5.98,23.78-8.14c5.83-1.56,11.77-2.77,17.69-3.94c4.5-0.89,9.05-1.54,13.6-2.17
		c3.75-0.52,7.52-0.98,11.29-1.26c6.99-0.53,13.99-1.08,21.01-1.1c4.35-0.01,8.7,0.01,13.05,0.11c3.87,0.09,7.74,0.22,11.6,0.51
		c3.7,0.27,7.38,0.71,11.06,1.17c4.24,0.54,8.47,1.12,12.68,1.8c4.38,0.71,8.75,1.45,13.09,2.35c6.63,1.37,13.25,2.78,19.82,4.38
		c6.89,1.68,13.74,3.51,20.55,5.49c4.48,1.31,8.82,3.04,13.1,4.95c7.88,3.51,15.5,7.53,23.25,11.3c3.48,1.69,6.99,3.29,10.34,5.24
		c6.07,3.52,12.01,7.23,17.59,11.49c5.19,3.97,10.39,7.91,15.32,12.2c7.48,6.51,14.81,13.18,21.55,20.47
		c3.01,3.25,6.06,6.48,8.89,9.88c2.78,3.35,5.26,6.93,7.93,10.37c2.23,2.86,4.26,5.87,6.19,8.93c2.41,3.81,4.66,7.72,6.9,11.63
		c4.67,8.19,9.34,16.37,13.89,24.62c2.61,4.73,4.73,9.7,6.59,14.77c0.94,2.57,1.91,5.14,2.7,7.76c1.48,4.94,2.87,9.9,4.21,14.87
		c1.66,6.14,3.21,12.32,4.87,18.46c1.26,4.66,2.86,9.24,3.62,14.03c0.29,1.83,0.56,3.67,0.64,5.52c0.3,6.68,0.54,13.37,0.76,20.06
		c0.17,5.08,0.26,10.16,0.39,15.23C556.48,423.07,556.44,423.07,556.4,423.07z M74.48,307.06c-0.75,0.5-1.09,1.32-1.48,2.11
		c-2.62,5.21-4.61,10.65-5.85,16.36c-0.29,1.34-0.62,2.68-1.05,3.97c-2.04,6.12-4.13,12.23-6.18,18.34
		c-1.76,5.28-3.64,10.52-4.81,15.98c-0.39,1.82-0.73,3.63-0.62,5.51c0.06,1.04,0.01,2.1-0.14,3.14c-0.89,6.31-1.75,12.62-2.76,18.9
		c-0.98,6.13-2.1,12.24-2.53,18.45c-0.11,1.6-0.06,3.22,0,4.82c0.1,2.66,0.36,5.31,0.39,7.97c0.06,4.76,0.02,9.51-0.01,14.27
		c-0.01,1.29-0.23,2.59-0.12,3.87c0.42,4.9,0.83,9.81,1.45,14.68c0.82,6.4,2.07,12.74,3.81,18.96c1,3.57,2.09,7.12,3.39,10.59
		c1.55,4.15,3.4,8.19,5.07,12.29c2.59,6.34,5.18,12.69,7.72,19.06c0.87,2.17,1.56,4.41,2.4,6.59c1.34,3.46,2.81,6.86,4.12,10.33
		c2.04,5.4,5.12,10.22,8.17,15.07c1.5,2.39,2.91,4.83,4.37,7.24c0.42,0.69,0.83,1.39,1.31,2.03c3.41,4.59,6.83,9.18,10.28,13.75
		c2.68,3.53,5.39,7.03,8.13,10.52c1.69,2.16,3.4,4.3,5.18,6.38c1.93,2.27,3.94,4.48,5.95,6.68c1.25,1.37,2.49,2.76,3.87,3.98
		c2.9,2.56,5.86,5.06,8.86,7.5c4.7,3.81,9.37,7.65,13.74,11.83c3.22,3.08,6.68,5.85,10.66,7.9c6.88,3.54,13.8,7.01,20.68,10.56
		c4.87,2.51,9.7,5.11,14.56,7.64c1.07,0.56,2.16,1.1,3.29,1.51c3.4,1.25,6.81,2.51,10.25,3.63c8.51,2.78,17.01,5.57,25.56,8.22
		c6.32,1.95,12.69,3.73,19.06,5.49c1.85,0.51,3.79,0.76,5.71,0.97c4.81,0.54,9.63,0.9,14.43,1.49c6.08,0.75,12.14,1.75,18.29,1.68
		c2.9-0.03,5.81-0.02,8.71-0.09c8.39-0.21,16.76-0.77,25.11-1.54c9.32-0.86,18.59-2.08,27.83-3.55c3.02-0.48,6.07-0.94,9.03-1.71
		c9.99-2.6,19.98-5.17,29.85-8.21c5.4-1.66,10.72-3.53,15.77-6.09c2.08-1.06,4.19-2.07,6.28-3.12c5.04-2.54,10.07-5.1,15.11-7.64
		c5.48-2.76,10.69-5.99,15.78-9.4c4.76-3.19,9.22-6.79,13.46-10.65c4.17-3.8,8.28-7.67,12.42-11.51c5.49-5.11,10.9-10.3,16.06-15.74
		c4.88-5.15,9.7-10.35,13.59-16.34c2.5-3.85,5.17-7.6,7.77-11.4c1.83-2.67,3.34-5.49,4.46-8.55c0.75-2.04,1.7-4.01,2.66-5.96
		c1.28-2.61,2.68-5.15,4.69-7.3c0.37-0.39,0.63-0.93,0.81-1.45c0.99-2.83,2.31-5.5,3.92-8.02c1.47-2.31,2.92-4.64,4.49-6.89
		c3.28-4.7,5.31-9.95,6.76-15.43c1.15-4.36,2.09-8.78,3.1-13.18c1.34-5.9,2.65-11.8,3.97-17.71c1.04-4.64,2.15-9.26,3.13-13.91
		c0.74-3.55,1.77-7.03,2.06-10.67c0.37-4.59,0.4-9.18,0.27-13.78c-0.09-3.06-0.3-6.12-0.36-9.18c-0.11-5-0.08-10-0.22-15
		c-0.19-6.77-0.47-13.54-0.73-20.31c-0.2-5.09-0.65-10.15-2.24-15.03c-2.45-7.52-4.36-15.19-6.3-22.84
		c-2.12-8.37-4.49-16.64-7.55-24.73c-2.06-5.45-4.62-10.65-7.4-15.74c-2.19-4.03-4.57-7.97-6.86-11.94
		c-2.82-4.89-5.61-9.79-8.48-14.65c-3.64-6.19-7.58-12.19-12-17.86c-5.45-7-11.19-13.76-17.51-20.01
		c-5.27-5.22-10.63-10.35-16.34-15.09c-3.72-3.09-7.52-6.08-11.3-9.1c-0.54-0.43-1.17-0.74-1.94-1.21c-0.52,2.5-1.28,4.7-1.45,7.03
		c-0.13,1.78-0.83,3.22-1.92,4.59c-1.46,1.82-2.93,3.65-4.19,5.61c-1.81,2.83-3.99,5.25-6.75,7.16c-0.11,0.08-0.14,0.28-0.21,0.42
		c0.49,0.4,0.97,0.8,1.6,1.32c0.83-0.18,1.77-0.37,2.7-0.59c3.06-0.73,5.38-2.43,6.9-5.24c0.45-0.84,1.05-1.63,1.68-2.35
		c0.58-0.66,1.28-1.22,2.34-1.07c0.14,0.3,0.25,0.6,0.41,0.87c0.16,0.26,0.36,0.5,0.54,0.73c0.57-0.1,1.04-0.21,1.52-0.25
		c1.33-0.11,1.81,0.38,1.66,1.67c-0.04,0.32-0.09,0.65-0.2,0.94c-1.42,3.6-2.9,7.18-5.55,10.12c-1.19,1.32-2.31,2.69-3.47,4.03
		c-3.49,4.04-7.23,7.79-12,10.38c-2.3,1.25-4.01,3.22-5.61,5.26c-0.08,0.1-0.01,0.3-0.01,0.53c1.14,0.34,2.22,0.01,3.24-0.46
		c4.15-1.92,8.66-2.49,13.06-3.43c2.26-0.48,4.65-0.43,6.98-0.48c1.78-0.04,3.32-0.4,4.5-1.87c0.49-0.61,1.03-1.26,2.07-1.28
		c0.75,1.05,0.71,2.19,0.23,3.36c-0.6,1.44-1.57,2.61-2.67,3.7c-1.08,1.08-2.12,2.21-3.15,3.34c-1.25,1.37-2.48,2.75-3.7,4.15
		c-0.31,0.35-0.54,0.76-0.76,1.06c0.1,0.3,0.11,0.47,0.2,0.59c2.5,3.45,4.96,6.94,7.53,10.34c3.98,5.27,8.17,10.38,11.65,16.02
		c1.39,2.26,2.99,4.39,4.46,6.6c1.61,2.41,3.3,4.77,4.75,7.27c2.41,4.18,4.67,8.46,7.35,12.49c0.13,0.2,0.24,0.42,0.35,0.63
		c1.5,2.9,2.49,5.92,2.44,9.25c-0.03,1.67-0.62,3.01-1.96,3.94c-0.99,0.68-2.06,1.28-3.17,1.73c-3.14,1.28-6.4,2.22-9.72,2.92
		c-4.65,0.98-9.33,1.83-13.99,2.74c-8.86,1.74-17.73,3.44-26.57,5.24c-7.73,1.58-15.45,3.26-23.16,4.95
		c-8.1,1.77-16.19,3.59-24.29,5.38c-9.43,2.08-18.86,4.18-28.3,6.22c-7.55,1.63-15.11,3.26-22.69,4.77
		c-7.98,1.59-15.98,3.06-23.98,4.55c-0.78,0.15-1.61,0.16-2.41,0.08c-1.92-0.18-3.59-1.76-4.18-3.86c-0.5-1.78,0.36-3.98,1.95-5.1
		c0.88-0.62,1.86-0.97,2.9-1.16c3.01-0.55,6.03-1.05,9.03-1.6c3.64-0.66,7.29-1.29,10.92-2.05c8.51-1.79,17.02-3.63,25.52-5.49
		c11.01-2.4,22.02-4.83,33.02-7.26c5.51-1.21,11-2.46,16.51-3.67c5.74-1.26,11.48-2.52,17.23-3.74c4.73-1.01,9.46-1.97,14.2-2.94
		c4.73-0.96,9.47-1.92,14.21-2.85c5.14-1,10.28-2,15.43-2.94c3.49-0.64,6.96-1.34,10.35-2.39c0.52-0.16,1.02-0.41,1.66-0.68
		c-0.28-0.6-0.47-1.12-0.75-1.58c-1.6-2.71-3.2-5.41-4.82-8.1c-1.66-2.76-3.28-5.55-5.01-8.26c-1.99-3.12-4.04-6.22-6.16-9.26
		c-2.02-2.91-4.13-5.77-6.26-8.6c-2.91-3.86-5.89-7.67-8.82-11.51c-1.89-2.49-3.8-4.97-5.18-7.96c-0.67,0.34-1.28,0.55-1.78,0.91
		c-0.65,0.47-1.23,1.04-1.82,1.59c-2.18,2.04-2.18,2.05-4.62,2.88c0.39,0.63,1.06,0.63,1.66,0.8c1.32,0.37,2.68,0.63,3.93,1.16
		c1.24,0.53,2.47,1.22,3.52,2.06c1.99,1.59,2.05,3.53,0.41,5.45c-1.23,1.44-2.81,2.39-4.4,3.35c-1.31,0.79-2.61,1.6-3.92,2.39
		c-1.66,0.99-3.27,2.06-4.99,2.93c-1.79,0.91-3.67,1.67-5.54,2.42c-5.24,2.11-10.59,2.72-16.07,1.01c-3-0.93-6.01-1.86-9-2.81
		c-1.07-0.34-2.11-0.97-3.19-1.05c-1.08-0.08-2.2,0.38-3.3,0.59c-0.32,0.06-0.65,0.04-0.96,0.12c-0.86,0.22-1.74,0.39-2.55,0.72
		c-1.73,0.71-2.1,1.74-1.36,3.49c0.16,0.37,0.36,0.72,0.58,1.06c1.48,2.26,3.4,4.05,5.76,5.4c3.49,1.99,7.22,2.05,11.04,1.44
		c2.07-0.33,3.78-1.32,5.17-2.9c0.53-0.61,1.02-1.28,1.65-1.76c0.55-0.43,1.25-0.69,1.91-0.93c0.49-0.18,0.96,0.18,1.09,0.68
		c0.2,0.82,0.1,1.57-0.28,2.34c-0.85,1.72-2.13,3.02-3.7,4.06c-1.75,1.16-3.48,2.33-5.27,3.42c-0.88,0.54-1.86,0.94-2.83,1.32
		c-0.94,0.37-1.9,0.34-2.8-0.17c-1.36-0.77-2.75-0.69-4.21-0.25c-2.93,0.89-5.71,1-9.11,0.47c-0.38-0.58-0.76-1.19-1.16-1.79
		c-1.93-2.87-4.41-5.12-7.51-6.66c-1.76-0.87-3.6-1.42-5.58-1.38c-1.39,0.03-2.48,0.58-2.88,1.99c0.11,0.23,0.15,0.41,0.26,0.51
		c1.5,1.26,1.44,2.72,0.66,4.35c-0.27,0.57-0.37,1.23-0.48,1.86c-0.21,1.17,0.21,2.04,1.34,2.54c1.87,0.83,3.78,1.39,5.86,0.93
		c0.71-0.16,1.41-0.38,2.13-0.46c1.27-0.14,2.57-0.32,3.83-0.23c1.23,0.09,1.74,1.63,0.93,2.58c-0.36,0.43-0.8,0.8-1.23,1.16
		c-1.79,1.5-3.63,2.95-5.39,4.47c-2.24,1.93-4.83,3.05-7.75,2.78c-3.76-0.35-7.54-0.76-11.12-2.13c-1.72-0.66-3.18-0.55-4.75,0.59
		c-2.22,1.61-4.75,2.68-7.44,3.36c-1.31,0.33-2.53,0.37-3.77-0.17c-1.61-0.7-3.28-0.56-4.88-0.42c-0.23,0.28-0.41,0.45-0.52,0.66
		c-1.48,2.6-3.86,3.57-6.68,3.59c-1.49,0.01-2.86,0.39-4.23,0.88c-0.6,0.21-1.21,0.39-1.88,0.6c-0.38-0.36-0.71-0.71-1.07-1.01
		c-1.97-1.65-4.24-2.65-6.82-2.77c-2.12-0.1-3.96,0.46-5.16,2.46c-0.61,1.03-1.39,1.99-2.2,2.88c-1.64,1.81-3.1,3.68-3.53,6.2
		c-0.2,1.17-1.33,1.66-2.43,1.2c-0.5-0.21-0.97-0.57-1.38-0.95c-0.65-0.6-1.22-1.29-1.87-1.9c-1.72-1.6-3.38-3.23-4.53-5.31
		c-0.18-0.32-0.53-0.69-0.86-0.75c-1.33-0.28-1.79-1.32-2.16-2.38c-0.65-1.87-0.58-3.81-0.38-5.75c0.07-0.65,0.52-0.98,1.13-1.07
		c0.4-0.06,0.81-0.1,1.2-0.08c3.39,0.2,6.76,0.61,9.85,2.13c1.37,0.67,2.59,0.66,3.92,0.08c1.32-0.58,2.29-1.48,2.84-2.81
		c0.43-1.04,0.9-2.07,1.29-3.13c0.45-1.22,1.38-1.73,2.59-1.84c0.32-0.03,0.65,0.05,0.97,0.02c1.37-0.12,1.79-0.61,1.76-2.05
		c-0.02-0.97-0.2-1.9-0.61-2.74c-1.61-0.28-3.11-0.56-4.62-0.79c-0.55-0.08-1.12-0.09-1.68-0.07c-0.8,0.03-1.35,0.47-1.64,1.22
		c-0.12,0.3-0.2,0.61-0.27,0.93c-0.24,1.08-0.95,1.62-1.98,1.88c-1.17,0.3-2.35,0.57-3.49,0.97c-3.57,1.24-6.64-0.05-9.63-1.79
		c-0.27-0.15-0.49-0.42-0.66-0.68c-0.51-0.76-0.32-1.39,0.57-1.97c0.24-0.16,0.48-0.32,0.76-0.51c-1.04-1.67-1.03-3.31-0.57-5.01
		c0.15-0.54,0.18-1.12,0.38-1.65c0.32-0.84,0.08-1.6-0.27-2.34c-0.23-0.5-0.6-0.93-0.99-1.51c1.03-0.87,2.03-1.79,3.11-2.62
		c2.02-1.56,4.28-2.18,6.82-1.64c0.79,0.17,1.6,0.26,2.37,0.49c1.31,0.38,2.54,0.19,3.77-0.34c1.76-0.77,2.01-1.05,1.87-2.89
		c-0.17-2.17-0.4-4.33-0.71-6.48c-0.54-3.84,0.4-7.2,3.17-9.96c0.62-0.62,1.31-1.21,2.06-1.67c1.86-1.15,3.15-2.7,3.83-4.8
		c0.3-0.91,0.75-1.83,1.66-2.31c1.2-0.63,1.95-1.67,2.66-2.74c0.65-0.97,1.51-1.65,2.54-2.17c1.36-0.69,2.68-1.48,4.06-2.14
		c1.16-0.56,2.36-1.05,3.57-1.46c0.62-0.21,1.16-0.45,1.67-0.9c0.66-0.58,1.35-1.28,2.15-1.52c2.16-0.64,4.38-1.06,6.58-1.57
		c1.92,0.42,3.47-0.47,4.93-1.5c1.69-1.19,3.59-1.9,5.59-2.16c2.44-0.32,4.72-1.03,6.93-2.04c1.58-0.73,3.26-0.91,4.96-0.85
		c1.37,0.05,2.73,0.22,4.09,0.37c0.28,0.03,0.53,0.22,0.94,0.41c-0.28,0.38-0.41,0.68-0.64,0.85c-0.86,0.61-1.82,0.97-2.87,1.21
		c-1.33,0.3-2.7,0.65-3.65,1.75c-0.3,0.35-0.49,0.81-0.65,1.24c-0.13,0.36,0.3,0.88,0.66,0.82c0.54-0.1,1.11-0.21,1.59-0.46
		c0.63-0.34,1.2-0.81,1.77-1.26c0.64-0.51,1.37-0.69,1.98-0.14c0.81,0.73,1.73,0.75,2.7,0.79c1.63,0.06,3.23-0.13,4.77-0.66
		c3.58-1.22,7.17-2.44,10.73-3.74c3.71-1.35,7.32-3.01,11.09-4.14c6.83-2.05,13.26-5,19.61-8.17c1.09-0.54,2.06-1.18,2.92-2.1
		c0.87-0.93,1.91-1.74,2.99-2.43c3.54-2.25,7.13-4.39,10.69-6.62c2.12-1.32,4.24-2.66,6.27-4.1c1.66-1.17,2.99-2.69,3.81-4.6
		c0.37-0.86,0.45-1.73,0.2-2.6c-0.24-0.83-0.57-1.66-1.42-2.19c-1.04,0.63-1.86,1.38-2.65,2.18c-2.92,2.94-6.17,5.43-10.03,7.04
		c-1.64,0.69-3.13,1.65-4.56,2.71c-1.68,1.25-3.36,2.5-5.06,3.74c-2.83,2.07-6.05,3.38-9.35,4.46c-4.39,1.43-8.54,3.36-12.49,5.75
		c-1.65,1-3.36,1.93-5.1,2.75c-2.28,1.07-4.73,1.48-7.34,1.61c0-0.5-0.15-0.97,0.03-1.23c0.54-0.79,1.08-1.64,1.82-2.21
		c2.79-2.18,5.65-4.28,8.5-6.38c0.44-0.33,1-0.51,1.52-0.72c1.83-0.73,3.77-0.84,5.7-0.93c1.4-0.07,2.74-0.32,3.89-1.14
		c0.71-0.51,1.36-1.14,1.96-1.79c1.22-1.29,2.65-2.08,4.48-2.02c1.46,0.05,2.63-0.53,3.72-1.46c1.29-1.1,2.62-2.15,4.02-3.11
		c2.27-1.56,4.37-3.29,6.12-5.44c1.16-1.42,2.66-2.33,4.5-2.62c0.56-0.09,1.11-0.23,1.67-0.3c2.14-0.27,3.99-1.15,5.66-2.52
		c2.36-1.94,4.8-3.8,7.2-5.71c1.03-0.82,1.79-1.82,2.04-3.22c-0.52-0.44-0.98-0.9-1.5-1.26c-1.91-1.34-3.81-2.71-5.78-3.96
		c-3.26-2.07-6.5-4.19-10-5.87c-4.86-2.35-9.66-4.83-14.51-7.21c-5.07-2.48-10.13-4.98-15.26-7.34c-4.1-1.88-8.26-3.64-12.62-4.88
		c-8.15-2.3-16.32-4.47-24.57-6.4c-8.56-2-17.19-3.65-25.85-5.14c-3.49-0.6-7.03-0.96-10.53-1.49c-11.11-1.68-22.3-2.28-33.52-2.31
		c-10.82-0.03-21.59,0.58-32.34,1.91c-6.33,0.79-12.62,1.76-18.87,2.96c-8.57,1.64-16.98,3.89-25.23,6.69
		c-9.86,3.35-19.45,7.37-28.87,11.81c-5.33,2.51-10.58,5.15-15.51,8.42c-2.01,1.33-4.08,2.58-6.33,3.52
		c-1.11,0.46-2.15,1.11-3.18,1.74c-4.08,2.48-7.76,5.5-11.53,8.39c-1.92,1.47-3.8,2.99-5.79,4.36c-4.07,2.79-7.82,5.95-11.3,9.45
		c-3.86,3.88-7.44,8.02-11.4,11.81c-2.22,2.12-4.52,4.13-6.89,6.07c-2.81,2.3-5.45,4.77-7.82,7.55c-3.15,3.69-5.92,7.64-8.51,11.74
		c-2.93,4.63-5.83,9.28-9.3,13.55c-1.47,1.81-2.75,3.78-3.99,5.76c-1.62,2.6-3.11,5.28-4.63,7.94c-0.19,0.32-0.24,0.72-0.38,1.18
		c0.7,0.44,1.26,0.92,1.91,1.19c1.89,0.78,3.45,2.04,5.07,3.24c2.4,1.77,4.89,3.41,7.75,4.39c2.97,1.02,5.94,2.05,8.91,3.07
		c2.83,0.96,5.67,1.75,8.71,1.83c3.95,0.1,7.89,0.4,11.83,0.65c3.38,0.21,6.75,0.42,10.13-0.14c1.9-0.31,3.85-0.32,5.78-0.43
		c0.64-0.04,1.29,0,1.93,0.09c1.09,0.14,1.73,0.6,1.64,1.1c-0.14,0.76-0.79,1.06-1.39,1.17c-1.18,0.21-2.39,0.34-3.59,0.35
		c-1.71,0.02-3.36,0.23-4.96,0.91c-1.51,0.65-3.09,0.83-4.74,0.68c-1.11-0.1-2.27-0.08-3.37,0.08c-4.25,0.61-8.5,0.87-12.77,0.24
		c-3.43-0.51-6.82-1.14-10.04-2.56c-1.83-0.81-3.77-1.42-5.7-1.97c-2.73-0.78-5.34-1.81-7.78-3.26c-1.11-0.66-2.2-1.34-3.32-1.98
		c-0.46-0.26-0.97-0.43-1.63-0.72c0,0.52-0.11,0.88,0.02,1.11c0.27,0.48,0.6,0.96,1.01,1.33c1.15,1.05,2.05,2.25,2.6,3.73
		c0.25,0.66,0.68,1.29,1.18,1.79c0.84,0.86,1.74,1.68,2.72,2.38c3.31,2.34,6.95,4.05,10.64,5.71c3.33,1.5,6.75,1.96,10.37,1.47
		c2.55-0.34,5.14-0.59,7.71-0.56c4.69,0.05,9.35-0.13,14-0.69c3.44-0.41,6.89-0.73,10.22-1.81c1.83-0.6,3.73-1.07,5.63-1.39
		c2.02-0.34,3.91-0.82,5.61-2.04c0.62-0.44,1.49-0.78,2.22-0.74c0.78,0.04,1.39-0.15,2.07-0.41c3.75-1.47,7.52-2.9,11.28-4.34
		c1.44-0.55,2.94-0.8,4.48-0.93c3.13-0.27,6.28-0.38,9.2-1.8c0.81-0.39,1.69-0.37,2.6-0.17c0.94,0.21,1.92,0.23,2.88,0.29
		c0.31,0.02,0.64-0.07,0.93-0.17c0.43-0.15,0.54-0.87,0.27-1.25c-0.43-0.6-1.05-0.76-1.7-0.74c-1.85,0.06-3.73-0.02-5.54,0.31
		c-3.73,0.67-7.42,1.52-11.11,2.4c-1.72,0.41-3.38,1.04-5.06,1.61c-2.75,0.93-5.45,2.11-8.36,2.38c-3.01,0.28-5.87,0.96-8.63,2.17
		c-0.5,0.22-1.09,0.31-1.64,0.33c-0.59,0.02-1.15-0.2-1.15-0.94c0.01-0.76-0.47-1.13-1.01-1.53c-0.34-0.25-0.57-0.65-0.86-1
		c1.01-0.28,1.86-0.49,2.7-0.76c0.92-0.3,1.81-0.68,2.72-0.98c1.99-0.66,3.99-1.29,5.98-1.94c2.6-0.85,5.19-1.75,7.81-2.57
		c1.54-0.48,3.14-0.76,4.65-1.3c2.62-0.95,5.35-1.12,8.06-1.44c1.52-0.18,3.07-0.22,4.54-0.6c1.52-0.4,3.01-0.45,4.55-0.41
		c1.69,0.05,3.38,0.02,5.07,0.02c0.73,0,1.46-0.1,2.17-0.04c0.9,0.09,1.7,0.13,2.53-0.42c0.39-0.26,1.1-0.17,1.62-0.06
		c2.23,0.46,4.47,0.57,6.73,0.54c0.56-0.01,1.13,0.04,1.69,0.05c3.23,0.04,6.19,0.96,8.84,2.82c0.46,0.32,0.92,0.65,1.41,0.94
		c0.96,0.58,1.91,1.2,2.91,1.69c0.99,0.48,1.79,1.09,2.13,2.17c0.45,1.45,1.46,2.48,2.5,3.51c0.97,0.96,1.88,1.98,2.83,2.96
		c0.39,0.4,0.8,0.82,1.26,1.13c1.37,0.92,2.95,0.51,3.63-0.99c0.36-0.8,0.66-1.67,0.75-2.54c0.27-2.51,1-4.88,1.72-7.28
		c0.59-1.95,1.38-3.77,2.7-5.35c0.52-0.62,0.97-1.29,1.38-1.98c1.98-3.33,4.79-5.84,7.91-8.04c1.78-1.25,3.58-2.5,5.64-3.26
		c1.48-0.54,2.97-1.27,4.58-0.81c0.22,0.28,0.36,0.47,0.51,0.65c1.23,1.49,0.98,2.99-0.01,4.46c-0.68,1.01-1.53,1.87-2.59,2.5
		c-0.76,0.45-1.54,0.89-2.27,1.39c-3.11,2.14-4.67,6.37-3.74,10.05c0.32,1.25,0.68,2.49,0.91,3.75c0.25,1.35,0.84,2.41,2.02,3.14
		c0.48,0.3,0.94,0.62,1.37,0.99c1.63,1.39,1.59,2.9-0.18,4.18c-0.71,0.52-1.52,0.91-2.3,1.32c-3.42,1.82-5.79,4.55-7.12,8.19
		c-0.1,0.28-0.29,0.6,0.1,0.97c0.14,0,0.42,0.09,0.58-0.01c0.67-0.43,1.37-0.85,1.95-1.39c1.13-1.04,2.33-1.97,3.67-2.73
		c3.82-2.16,7.96-3.48,12.19-4.55c0.7-0.18,1.43-0.36,2.14-0.36c1.34,0.01,2.75-0.01,3.5,1.03c-0.13,1.72-0.29,3.15-0.32,4.59
		c-0.02,1.26,1.5,1.42,2.16,0.9c0.31-0.25,0.62-0.55,0.79-0.9c0.5-1,0.97-2.03,1.37-3.07c0.4-1.05,0.61-2.18,1.06-3.21
		c0.91-2.07,3.06-2.47,4.76-0.97c0.81,0.72,1.38,1.57,1.5,2.68c0.14,1.36,0.3,2.72,0.41,4.08c0.09,1.03,0.04,2.08,0.84,2.87
		c0.2-0.02,0.4,0.02,0.5-0.05c0.32-0.24,0.62-0.51,0.9-0.79c0.75-0.73,1.47-1.48,2.24-2.2c0.27-0.25,0.58-0.19,0.83,0.27
		c-0.82,1.69-2.79,2.97-2.3,5.33c-0.45,0.4-0.91,0.73-1.28,1.15c-0.94,1.09-0.95,1.66-0.09,2.77c0.49,0.64,1.2,1.17,1.49,1.88
		c0.94,2.31,1.85,4.64,1.92,7.2c0.09,3.43-1.51,5.4-4.95,5.98c-0.48,0.08-0.94,0.22-1.42,0.28c-1.16,0.13-2.14,0.71-3.1,1.29
		c-1.25,0.75-1.77,1.82-1.23,3.26c2.11,0.53,2.59,1.11,2.73,3.26c0.02,0.4-0.05,0.81-0.03,1.21c0.02,0.38,0.11,0.75,0.17,1.09
		c1.03,0.26,1.88,0.03,2.74-0.2c1.12-0.3,2.05,0,2.82,0.88c0.41,0.47,0.9,0.89,1.22,1.2c1.25-0.15,2.28-0.38,3.31-0.38
		c1.55,0.01,3.06-0.21,4.54-0.61c1.05-0.28,2.02-0.38,3.07,0c1.13,0.41,2.22,0.24,3.16-0.6c0.29-0.26,0.65-0.52,1.01-0.63
		c0.36-0.11,0.93-0.19,1.15,0c0.78,0.68,1.46,1.48,2.17,2.23c0.5,0.53,0.45,1.2,0.38,1.83c-0.18,1.67-0.41,3.33-0.63,5.03
		c-0.47,0.2-0.92,0.38-1.35,0.58c-0.95,0.44-1.96,0.78-2.81,1.36c-1.66,1.13-3.22,2.43-4.84,3.61c-1.04,0.76-2.1,1.49-3.21,2.14
		c-0.75,0.44-1.52,0.43-2.19-0.29c-0.37-0.4-0.84-0.7-1.32-1.09c-1.08,0.56-1.93,1.29-2.82,1.97c-0.84,0.65-1.34,0.62-2.18-0.01
		c-0.39-0.29-0.7-0.68-1.09-0.95c-0.72-0.49-1.47-0.93-2.06-1.3c-1.01,0.25-1.43,0.84-1.8,1.48c-0.36,0.63-0.71,1.26-1.11,1.87
		c-0.51,0.79-1.22,1.28-2.24,1.24c-0.74-0.16-1-1.32-2.01-1.05c-0.36,0.61-0.77,1.21-1.09,1.85c-0.42,0.81-0.24,1.54,0.48,2.15
		c0.99,0.82,1.97,1.66,2.99,2.43c3.35,2.51,3.36,3.22,8.34,1.6c0.92-0.3,1.85-0.53,2.79-0.75c1.06-0.25,1.89,0.15,2.55,0.98
		c0.28,0.36,0.55,0.72,0.79,1.02c1.36-0.35,1.97-1.28,2.59-2.25c1.55-2.4,4.67-4.05,7.71-4.16c0.57,1.45,0.6,1.6-0.09,2.39
		c-0.42,0.48-0.93,0.89-1.45,1.26c-1.66,1.18-3.18,2.44-3.87,4.49c-0.38,1.12-1.3,1.79-2.46,2.14c-2.47,0.75-4.91,1.57-7.39,2.29
		c-2.96,0.85-5.85,0.91-8.57-0.93c-1.13-0.76-2.39-1.32-3.6-1.96c-0.33-0.18-0.68-0.49-1.1-0.09c0.02,0.38,0.06,0.77,0.05,1.17
		c-0.09,2.83-1.74,4.68-4.51,5.07c-0.88,0.12-1.75,0.27-2.64,0.33c-6.29,0.39-12.48,1.46-18.65,2.68
		c-8.38,1.65-16.71,3.52-25.13,4.94c-4.13,0.7-8.26,1.38-12.37,2.18c-4.82,0.93-9.66,1.84-14.43,3c-7.28,1.77-14.47,3.91-21.8,5.46
		c-5.44,1.15-10.86,2.4-16.37,3.19c-3.59,0.51-7.2,0.89-10.77,1.48c-7.31,1.22-14.53,2.94-21.78,4.47
		c-5.75,1.22-11.52,2.37-17.3,3.48c-1.74,0.33-3.51,0.6-5.27,0.63c-3.52,0.06-6.07-2.4-6.37-5.93c-0.08-0.88-0.18-1.77-0.22-2.65
		c-0.1-2.33-0.57-4.64-0.35-6.99c0.46-4.89,0.87-9.79,1.3-14.68c0.4-4.58,0.89-9.14,1.74-13.67c0.74-3.97,1.54-7.91,2.69-11.78
		c0.16-0.54,0.32-1.11,0.63-1.56c1.1-1.61,2.53-2.73,4.61-2.59c2.13,0.14,3.59,1.21,4.37,3.25c0.49,1.27,0.51,2.47,0.13,3.77
		c-1.85,6.28-3.03,12.7-3.79,19.2c-0.39,3.36-0.77,6.73-1.08,10.1c-0.28,3.13-0.5,6.27-0.67,9.41c-0.06,1.1-0.15,2.26,0.56,3.33
		c0.47,0,0.96,0.07,1.42-0.01c2.7-0.48,5.4-0.93,8.08-1.5c7.64-1.63,15.27-3.34,22.92-4.95c2.91-0.62,5.85-1.13,8.79-1.6
		c5.73-0.92,11.5-1.61,17.2-2.69c8.07-1.53,16.05-3.56,23.97-5.75c6.14-1.7,12.38-2.94,18.63-4.14c5.93-1.14,11.91-2.02,17.84-3.15
		c7.28-1.39,14.53-2.95,21.8-4.36c3.63-0.7,7.3-1.25,10.96-1.8c2.46-0.37,4.94-0.63,7.7-0.98c-0.46-0.35-0.67-0.6-0.94-0.69
		c-0.69-0.23-1.39-0.4-2.09-0.57c-0.84-0.2-1.53-0.67-1.85-1.43c-0.78-1.85-1.89-3.55-2.4-5.53c-0.38-1.47-0.82-2.95-1.41-4.35
		c-0.53-1.28-0.95-2.56-1.1-3.94c-0.06-0.55-0.19-1.12-0.4-1.64c-0.59-1.5-2.3-2-3.57-1.05c-0.45,0.33-0.8,0.8-1.23,1.16
		c-0.62,0.51-1.2,1.23-1.91,1.43c-1.44,0.4-2.59,1.26-3.86,1.93c-1.39,0.74-2.87,1.14-4.33,0.06c-0.71-0.53-1.48-0.52-2.3-0.24
		c-2.95,0.98-6,1.1-9.08,1.02c-1.48-0.04-2.66-0.54-3.5-1.78c-0.17-0.26-0.38-0.49-0.66-0.85c-3.2,0.97-6.34,1.96-8.64,4.55
		c-1.57,1.77-3.43,2.16-5.67,1.55c-3.13-0.86-6.16-1.83-8.53-4.26c-1.02-1.05-2.01-1.01-3.29-0.12c-0.99,0.69-1.92,1.48-2.77,2.33
		c-1.11,1.12-2.36,2-3.88,2.36c-2.74,0.65-5.5,1.2-8.26,1.77c-2.69,0.56-4-1.51-5.58-3c-0.24-0.23-0.28-0.75-0.3-1.14
		c-0.03-0.56,0.02-1.13,0.09-1.69c0.32-2.49-0.36-4.79-1.41-7c-0.16-0.34-0.51-0.58-0.77-0.86c-0.63,0.49-1.18,0.92-1.77,1.37
		c-0.7-0.56-1.3-1.05-1.97-1.59c-0.4,0.28-0.77,0.46-1.03,0.73c-2.33,2.38-5.17,4.12-7.85,6.01c-2.82,1.99-5.98,3.5-9.06,5.09
		c-1.42,0.73-2.98,1.21-4.52,1.67c-1.54,0.46-3.13,0.72-4.69,1.13c-1.33,0.34-2.63,0.75-3.95,1.14c-1.07,0.32-2.06,0.15-3.02-0.4
		c-1.11-0.64-2.25-1.25-3.37-1.88c-1-0.56-1.16-1.16-0.44-2.12c0.31-0.41,0.56-0.75,0.47-1.28c-0.23-1.41,0.56-2.08,1.8-2.41
		c0.47-0.13,0.92-0.38,1.39-0.39c1.57-0.03,2.26-1.12,2.82-2.3c0.62-1.31,1.17-2.65,1.65-4.01c0.23-0.65,1.06-1.06,0.74-2.05
		c-0.37,0-0.76-0.07-1.13,0.01c-1.18,0.27-2.35,0.58-3.51,0.91c-3.36,0.94-6.76,1.63-10.26,1.44c-2.83-0.16-5.64-0.12-8.45,0.15
		c-1.41,0.14-2.72-0.1-4.01-0.63c-0.82-0.33-1.65-0.68-2.51-0.83c-3.32-0.59-6.22-2.14-9.11-3.76c-1.14-0.64-2.06-1.56-2.75-2.67
		c-1.14-1.86-0.55-3.98,1.45-4.85c1.02-0.44,2.15-0.66,3.25-0.86c1.19-0.21,2.41-0.25,3.6-0.43c2.63-0.39,5.33-0.61,7.8-1.62
		c2.87-1.17,5.9-1.6,8.85-2.38c0.24-0.06,0.53,0.03,1.19,0.09c-0.55,0.33-0.72,0.49-0.92,0.54c-2.38,0.53-4.59,1.5-6.74,2.63
		c-0.85,0.45-1.77,0.78-2.67,1.14c-2.25,0.91-4.62,1.42-6.97,1.99c-1.08,0.26-2.12,0.73-3.14,1.18c-0.23,0.1-0.49,0.56-0.43,0.76
		c0.09,0.33,0.39,0.76,0.69,0.86c0.76,0.26,1.57,0.49,2.35,0.49c2.04,0.01,3.99,0.51,5.98,0.82c3.71,0.58,7.39,0.5,11-0.69
		c0.92-0.3,1.85-0.58,2.77-0.85c1.07-0.31,2.05-0.26,2.9,0.6c0.25,0.25,0.69,0.31,1.02,0.45c0.27-0.25,0.51-0.38,0.6-0.58
		c0.8-1.88,2.38-2.77,4.2-3.35c1.31-0.41,2.65-0.62,4.02-0.76c3.89-0.38,6.8-2.26,8.4-5.84c-0.3-0.91-0.86-1.28-1.67-1.33
		c-2.49-0.15-4.66-1.19-6.76-2.42c-0.28-0.16-0.57-0.31-0.82-0.51c-0.74-0.59-1.56-0.65-2.5-0.62c-2.09,0.07-4.18,0-6.27-0.06
		c-1.13-0.03-2.25-0.19-3.38-0.23c-3.64-0.13-7.22-0.7-10.77-1.43c-0.7-0.14-1.44-0.35-2.02-0.74c-1.86-1.22-3.89-1.9-6.07-2.27
		c-0.95-0.16-1.86-0.54-2.81-0.72c-1.75-0.34-3.16-1.23-4.27-2.56c-1.04-1.26-2.25-2.29-3.55-3.26c-0.7-0.52-1.31-1.21-1.82-1.92
		c-0.72-1-0.52-1.93,0.46-2.73c0.25-0.2,0.56-0.33,0.8-0.54c0.64-0.55,0.71-1.32,0.04-1.88c-0.67-0.56-1.43-1.05-2.21-1.44
		c-2.76-1.35-5.33-3.01-7.8-4.84c-1.6-1.19-2.81-2.65-3.42-4.57c-0.1-0.31-0.22-0.61-0.35-0.9c-0.34-0.8-0.88-1.35-1.81-1.36
		c-0.24,0-0.49,0.02-0.72-0.02c-0.79-0.12-1.21-0.51-1.17-1.26c0.04-0.8,0.24-1.59,0.35-2.38
		C76.94,308.92,76.48,308.09,74.48,307.06z M439.53,253.4c-0.56,0.27-0.87,0.35-1.1,0.53c-1.75,1.35-3.76,2.18-5.84,2.84
		c-1.38,0.44-2.79,0.82-4.17,1.24c-2.4,0.73-4.74,1.63-6.77,3.15c-1.83,1.36-3.83,2.4-5.97,3.14c-1.64,0.57-3.1,1.4-4.27,2.66
		c-1.61,1.74-3.58,2.74-5.88,3.08c-2.22,0.34-4.16,1.29-5.93,2.58c-1.32,0.96-2.73,1.41-4.3,1.25c-1.65-0.17-3.21,0.11-4.75,0.65
		c-1.61,0.56-3.28,0.77-4.97,0.93c-1.68,0.16-3.36,0.42-5.01,0.78c-2.43,0.53-4.56,1.53-5.71,3.99c-0.52,1.12-1.59,1.63-2.81,1.48
		c-0.95-0.11-1.9-0.34-2.79-0.68c-2.11-0.8-3.95-0.51-5.55,1.11c-0.23,0.23-0.46,0.45-0.7,0.67c-0.79,0.74-1.72,1.15-2.81,1.28
		c-2.72,0.32-5.43,0.77-8.15,0.97c-1.87,0.14-3.41,0.87-4.84,1.97c-0.38,0.29-0.72,0.64-1.11,0.93c-1.17,0.89-2.47,1.54-3.91,1.84
		c-1.04,0.22-1.76-0.43-1.67-1.48c0.05-0.56,0.22-1.1,0.29-1.66c0.06-0.49,0.02-0.98-0.69-1.19c-3.3,0.98-5.48,3.4-7.21,6.3
		c-0.31,0.52-0.43,1.22-0.45,1.85c-0.09,3.02,0.24,5.95,1.98,8.55c0.18,0.27,0.26,0.6,0.46,0.85c0.17,0.22,0.44,0.37,0.76,0.64
		c1.34-1.88,1.53-3.82,1.24-5.86c-0.1-0.72-0.25-1.43-0.3-2.15c-0.05-0.7,0.29-1.25,0.91-1.58c0.69-0.38,1.4-0.42,2.05,0.06
		c0.38,0.28,0.81,0.59,1.03,1c1.24,2.28,2.99,3.9,5.44,4.88c1.39,0.56,1.93,1.88,1.72,3.41c-0.07,0.48-0.26,0.94-0.28,1.42
		c-0.1,2.46,0.12,4.81,2.02,6.69c0.8,0.79,1.54,1.66,2.15,2.61c1.04,1.61,2.28,2.87,4.14,3.5c0.96,0.33,1.26,1.09,1.1,2.16
		c-0.09,0.64-0.29,1.26-0.4,1.89c-0.06,0.37-0.04,0.75-0.07,1.17c2.93-0.7,4.1-2.08,3.94-4.71c-0.06-0.95-0.21-2-0.68-2.79
		c-1.85-3.12-3.41-6.39-4.99-9.64c-0.33-0.67-0.84-1.18-1.6-1.38c-0.23-0.06-0.47-0.12-0.69-0.22c-1.07-0.49-1.36-1.05-0.85-2.11
		c0.47-0.97,0.59-1.98,0.78-3c0.31-1.65,0.7-3.31,1.24-4.9c0.51-1.5,1.54-2.6,3.19-2.94c1.3,1.96,1.3,2.71-0.31,4.14
		c-0.91,0.8-1.22,1.69-0.98,2.79c0.34,1.51,0.54,3,0.16,4.53c-0.09,0.37-0.03,0.84,0.13,1.18c0.18,0.38,0.56,0.68,0.97,1.14
		c0.37-0.56,0.69-0.92,0.88-1.33c0.36-0.81,0.69-1.64,0.96-2.48c0.32-0.97,0.9-1.69,1.78-2.18c1.14-0.64,2.09-1.49,2.81-2.6
		c0.34-0.52,0.69-1.11,1.56-1.17c0.13,0.23,0.36,0.48,0.4,0.76c0.09,0.64,0.13,1.29,0.09,1.93c-0.1,1.93-0.27,3.85-0.37,5.78
		c-0.08,1.38-0.03,2.73,1.15,3.76c0.94,0.82,1.04,1.32,0.49,2.24c-0.4,0.67-0.9,1.29-1.28,1.83c0.33,1.52,1.31,1.99,2.51,2.11
		c1.68,0.17,3.34,0.33,4.96,0.94c1.33,0.5,2.54,0.01,3.37-1.21c1.04-1.52,2.08-3.03,3.2-4.67c-0.36-0.28-0.78-0.61-1.19-0.93
		c-0.7,0.27-1.28,0.58-1.9,0.69c-0.43,0.08-1.09,0.06-1.35-0.2c-0.62-0.63-1.42-0.71-2.13-1.05c-1.69-0.81-2.1-1.79-1.5-3.53
		c0.21-0.61,0.56-1.18,0.72-1.79c0.25-0.92,0.59-1.89,0.53-2.82c-0.13-2.08-0.44-4.14-0.78-6.2c-0.2-1.2-0.16-1.57,0.92-2.16
		c0.4-0.22,0.88-0.3,1.36-0.46c0.24,0.36,0.42,0.61,0.6,0.87c0.99,1.51,2.39,2.1,4.16,1.81c0.4-0.06,0.79-0.18,1.19-0.21
		c1.18-0.11,1.78,0.46,1.82,1.69c0.01,0.24,0.04,0.49-0.02,0.72c-0.52,2.28-1.04,4.55-2.7,6.37c-0.65,0.71-1.24,1.49-1.74,2.31
		c-0.55,0.91,0.06,2.02,1.13,2.14c0.38,0.04,0.82,0,1.18-0.14c1.41-0.56,2.83-1.12,4.07-2.23c-0.1-0.79-0.19-1.58-0.29-2.37
		c-0.22-1.74,0.37-3.14,1.69-4.3c1.29-1.13,2.68-2.04,4.36-2.5c0.85-0.23,1.7-0.52,2.52-0.83c0.68-0.25,1.35-0.53,1.98-0.88
		c1.46-0.79,2.55-2.66,1.79-4.52c-0.26-0.66-0.52-1.31-0.83-2.11c-0.91,0.15-1.7,0.21-2.47,0.41c-1.4,0.37-2.77,0.85-4.17,1.24
		c-1.18,0.33-2.4,0.47-3.55-0.08c-0.41-0.2-0.92-0.51-1.07-0.89c-0.6-1.47-0.63-3.03-0.03-4.48c0.53-1.3,1.88-1.36,3.08-1.53
		c0.24-0.04,0.48-0.06,0.72-0.07c2.21-0.09,4.27-0.7,6.29-1.58c1.78-0.77,3.64-1.32,5.58-1.53c2-0.21,4.02-0.37,6.01-0.64
		c1.91-0.27,3.82-0.52,5.64-1.27c2.83-1.17,5.71-2.22,8.56-3.33c2.41-0.94,4.69-2.12,6.76-3.71c2.49-1.91,5.06-3.73,7.54-5.66
		c1.52-1.19,2.99-2.47,4.35-3.83C439.55,257.58,440.1,255.78,439.53,253.4z M326.37,311.02c1.84-1.73,2.24-2.72,1.72-4.64
		c-0.36-1.31-0.87-2.59-1.42-3.83c-1.18-2.67-1.23-5.4,0.04-7.96c1.69-3.4,3.78-6.56,6.96-8.81c1.51-1.07,3.07-2.06,4.62-3.08
		c2.79-1.84,5.81-3.1,9.11-3.66c0.32-0.05,0.64-0.09,0.95-0.18c1.08-0.32,2.17-0.62,3.22-1.01c1.77-0.66,2.6-2.07,2.89-3.85
		c0.1-0.62-0.37-1.15-0.99-1.05c-0.63,0.1-1.28,0.23-1.85,0.5c-2.47,1.21-5.1,1.97-7.72,2.78c-0.91,0.28-1.85,0.66-2.6,1.23
		c-1.92,1.48-4.08,2.21-6.45,2.47c-1.8,0.19-3.43,0.85-4.93,1.85c-1.07,0.72-2.17,1.39-3.25,2.09c-2.33,1.5-4.34,3.36-5.75,5.76
		c-0.94,1.59-1.85,3.23-2.51,4.95c-1.2,3.16-1.03,6.28,0.75,9.28C320.94,306.84,323.62,308.85,326.37,311.02z M114.11,330.64
		c-0.12,1.59-0.74,2.69-1.66,3.63c-0.22,0.23-0.43,0.48-0.6,0.75c-0.48,0.73-0.37,1.37,0.32,1.88c0.86,0.63,1.8,1.05,2.87,1.15
		c2.64,0.26,5.27,0.56,7.92,0.79c1.62,0.14,3.2-0.05,4.75-0.6c3.2-1.13,6.5-1.73,9.91-1.81c2.53-0.06,6.48-1.5,8.81-3.05
		c0.2-1.39-0.61-2.22-1.73-2.81c-0.84-0.44-1.74-0.78-2.56-1.14c-0.13-0.54-0.24-0.99-0.37-1.52c-2.63-0.15-5.19-0.3-7.74,0.08
		c-1.11,0.16-2.25,0.32-3.29,0.71c-1.71,0.64-3.45,0.79-5.22,0.68c-2.67-0.17-5.29,0.27-7.93,0.5
		C116.48,329.98,115.4,330.35,114.11,330.64z M426.67,288.36c0.87-0.48,1.53-1.01,2.28-1.21c1.23-0.32,2.52-0.52,3.79-0.6
		c0.8-0.05,1.33-0.36,1.91-0.85c0.92-0.78,1.81-1.7,2.89-2.13c1.63-0.65,2.58-1.85,3.42-3.22c0.18-0.3,0.18-0.72,0.29-1.2
		c-1.4-0.43-2.67-0.44-3.94-0.37c-3.45,0.18-6.89,0.63-10.35,0.44c-2.4-0.13-4.62,0.48-6.76,1.5c-2.72,1.29-5.5,2.22-8.58,2.03
		c-1.42-0.09-2.68,0.42-3.5,1.35c-0.38,1.44-0.71,2.68-1.03,3.92c-0.14,0.55-0.35,1.18,0.14,1.59c0.83,0.68,0.92,1.65,1.17,2.56
		c2.47,0.08,4.86,0.21,7.26,0.23c1.93,0.02,2.28-0.26,2.93-2.1c0.42-1.19,1.12-1.87,2.47-1.86c0.7,0,1.42-0.2,2.08-0.45
		c0.8-0.3,1.53-0.38,2.32,0.01C425.81,288.18,426.22,288.23,426.67,288.36z M407.9,305.75c-0.3,0.27-0.49,0.59-0.75,0.66
		c-0.69,0.19-1.4,0.32-2.12,0.39c-0.72,0.07-1.45,0.02-2.17,0.09c-0.56,0.06-1.15,0.24-1.26,0.91c-0.09,0.59,0.41,0.85,0.84,1.04
		c3.1,1.39,6.26,2.13,9.55,0.61c0.58-0.27,1.22-0.43,1.8-0.71c2.13-1.01,4.38-1.58,6.69-1.99c2.05-0.37,4.16-0.54,6.11-1.37
		c1.9-0.81,3.81-1.24,5.87-0.55c0.77,0.26,1.44-0.15,1.54-0.74c0.13-0.72-0.43-0.97-0.94-1.21c-1.53-0.71-3.13-1.32-4.6-2.14
		c-2.22-1.24-4.46-2.24-7.08-2.05c-1.04,0.08-1.86-0.39-2.47-1.26c-0.32-0.45-0.68-0.87-1.08-1.37c-1.77,0.94-3.51,1.81-5.43,2.1
		c-1.83,0.28-3.67,0.46-5.51,0.66c-1.28,0.15-2.59,0.16-3.84,0.43c-1.69,0.35-2.09,1.78-0.97,3.1c0.7,0.83,1.62,1.3,2.63,1.63
		C405.86,304.35,406.99,304.72,407.9,305.75z M196.5,310.81c0.48,0.53,0.73,0.99,1.12,1.2c0.9,0.51,1.84,0.97,2.8,1.33
		c2.03,0.76,4.18,1.17,6.09,2.27c1.89,1.08,2.7,2.69,2.36,4.84c-0.23,1.45-0.78,2.77-1.75,3.91c-1.26,1.48-2.59,2.87-4.29,3.83
		c-0.84,0.47-1.07,1.21-0.9,2.04c0.13,0.61,0.39,1.24,0.77,1.73c1.16,1.48,3.47,2.15,5.24,1.53c0.57-0.2,1.24-0.58,1.51-1.08
		c0.71-1.28,1.68-2.35,2.6-3.46c2.06-2.47,3.11-5.26,2.62-8.48c-0.34-2.22-0.79-4.43-1.33-6.61c-0.74-2.98-1.95-3.17-4.28-3.33
		c-0.08-0.01-0.16-0.01-0.24,0c-2.35,0.18-4.64-0.17-6.94-0.61C200.13,309.58,198.38,309.66,196.5,310.81z M162.8,349.15
		c3.44,0.57,4.77,0.52,7.47,0.09c1.09-0.18,1.95-0.56,2.73-1.34c1.59-1.6,3.3-3.08,5.37-4.04c1.9-0.89,3.26-2.35,4.25-4.14
		c0.72-1.29,1.62-2.38,2.65-3.42c0.77-0.78,1.56-1.57,2.14-2.62c-1.57-1.46-3.32-2.34-5.18-2.81c-0.82,0.28-1.08,0.89-1.36,1.46
		c-0.48,1.02-1.01,2.03-1.37,3.09c-0.59,1.74-1.69,2.84-3.44,3.42c-1.29,0.43-2.54,1.02-3.77,1.6c-3.63,1.73-6.6,4.27-9.02,7.46
		C163.05,348.19,163,348.6,162.8,349.15z M339.24,302.84c-0.75,2.12-1.59,3.89-1.99,5.75c-0.43,2.03-0.48,4.11-0.21,6.23
		c0.37,2.97,1.56,5.36,3.88,7.21c1.01,0.8,2.07,1.54,3.01,2.41c0.76,0.7,1.41,1.53,2.03,2.35c0.42,0.55,0.35,1.18,0.07,1.83
		c-0.39,0.95-1.12,1.57-1.91,2.12c-0.98,0.7-2.02,1.32-3.01,2.01c-0.58,0.4-1.27,0.73-1.45,1.6c0.61,0.36,1.26,0.68,1.85,1.08
		c0.87,0.58,1.82,0.7,2.78,0.47c1.24-0.31,2.47-0.73,3.67-1.17c0.34-0.13,0.66-0.45,0.88-0.76c1.96-2.81,1.48-6.97-1.06-9.23
		c-0.6-0.54-1.25-1.02-1.83-1.57c-2.21-2.12-3.61-4.66-4.08-7.73c-0.42-2.81-0.46-5.61-0.13-8.42c0.1-0.8,0.16-1.6-0.17-2.38
		C340.91,304.11,340.22,303.59,339.24,302.84z M167.32,357.54c-0.42-0.74-0.92-1.28-1.75-1.17c-1.76,0.23-3.55,0.4-4.72,2.04
		c-0.14,0.19-0.34,0.35-0.51,0.51c-0.63,0.59-1.36,0.84-2.22,0.71c-0.4-0.06-0.8-0.13-1.19-0.2c-1.18-0.24-2.24,0.02-3.17,0.78
		c-0.56,0.46-1.17,0.87-1.67,1.39c-1.18,1.23-2.6,2.14-3.92,3.19c-1.3,1.03-2.39,2.34-3.5,3.6c-0.29,0.33-0.41,0.88-0.45,1.34
		c-0.17,1.75,1.17,2.96,2.87,2.56c0.6-0.14,1.18-0.49,1.71-0.84c1.47-0.99,2.98-1.89,4.6-2.64c3.08-1.42,5.98-3.15,8.51-5.45
		c0.89-0.81,1.87-1.52,2.83-2.24C166,360.18,167,359.09,167.32,357.54z M148.41,339.2c-0.86,1.29-1.63,2.48-1.91,3.89
		c0.75,0.78,1.55,1.04,2.45,1.2c3.36,0.61,6.6,0.04,9.73-1.08c4.15-1.48,7.59-4.19,11.07-6.79c0.92-0.69,1.12-1.96,0.67-3.06
		c-0.28-0.68-0.85-0.96-1.56-0.74c-2.15,0.67-4.29,1.37-6.44,2.04c-1.46,0.45-2.92,0.91-4.41,1.25c-2.14,0.49-4.18,1.19-6.01,2.42
		C150.91,339.06,149.79,339.66,148.41,339.2z M329.14,315.93c-0.72,1.29-1.63,1.86-2.79,2.14c-0.52,0.13-1.04,0.45-1.45,0.8
		c-1.42,1.22-2.51,2.7-3.22,4.45c-0.57,1.41-0.63,2.82-0.15,4.25c0.59,1.78,1.57,3.35,2.82,4.73c0.19,0.21,0.63,0.41,0.82,0.32
		c0.31-0.14,0.66-0.49,0.73-0.81c0.21-1.03,0.16-2.07-0.1-3.11c-0.21-0.84,0-1.6,0.91-2.05c1.01,0.41,1.64,1.17,2.08,2.16
		c0.39,0.88,0.79,1.77,1.29,2.58c0.33,0.53,0.79,1.03,1.29,1.4c0.88,0.66,2.27-0.01,2.37-1.1c0.04-0.4,0.01-0.8-0.01-1.21
		c-0.2-3.81-1.07-7.48-2.42-11.03C330.87,318.28,330.24,317.15,329.14,315.93z M188.98,363.78c0.02-0.38,0.06-0.86,0.05-1.34
		c-0.02-1.17-0.4-1.56-1.58-1.69c-1.4-0.15-2.71,0.2-3.99,0.71c-3.63,1.45-4.82,4.2-4.3,7.92c0.17,1.21,0.69,2.37,1.94,2.85
		c0.7,0.27,0.94,0.66,1.17,1.33c0.29,0.86,1.01,1.28,1.65,1.07c2.34-0.76,4.31-2.1,5.93-3.94c0.46-0.52,0.55-1.15,0.3-1.8
		c-0.15-0.37-0.25-0.79-0.48-1.1C188.83,366.59,188.72,365.27,188.98,363.78z M178.98,351.43c0.44,0.19,0.85,0.47,1.28,0.52
		c1.45,0.15,2.86-0.11,4.28-0.42c1.49-0.33,2.67-1.04,3.43-2.38c0.48-0.84,1.02-1.57,1.98-2.01c0.77-0.35,0.93-0.88,0.49-1.55
		c-0.42-0.65-0.48-1.33-0.59-2.04c-0.24-1.61-0.65-1.94-2.21-1.76c-0.55,0.06-1.1,0.22-1.62,0.39c-1.73,0.57-3.04,1.72-4.2,3.09
		C180.35,347.04,179.68,349.17,178.98,351.43z M257.33,347.46c-0.59-0.2-1.09-0.38-1.6-0.56c-0.37-0.13-0.88-0.14-1.1-0.39
		c-1.18-1.37-2.41-0.9-3.67-0.22c-0.85,0.45-1.67,0.96-2.53,1.39c-1.02,0.52-1.54,1.34-1.73,2.45c-0.25,1.48-0.02,2.89,0.66,4.2
		c0.53,1.02,1.29,1.82,2.44,2.19c1.2,0.38,2.08-0.17,2.17-1.44c0.05-0.72,0.03-1.44,0.07-2.16c0.01-0.13,0.16-0.26,0.32-0.51
		c0.54,0.04,1.15,0.09,1.73,0.14C255.56,351.1,257.01,349.73,257.33,347.46z M151.43,327.11c0.5,0.54,0.71,0.91,1.03,1.07
		c1.13,0.6,2.26,1.29,3.47,1.66c3.63,1.09,7.01,0.26,10.11-1.78c0.34-0.22,0.63-0.8,0.62-1.2c-0.01-0.59-0.64-0.61-1.11-0.66
		c-0.4-0.04-0.8-0.01-1.21-0.01C160.17,326.19,156.01,326.56,151.43,327.11z M216.85,340.51c-1.69,0.2-1.7,0.2-2.32,0.77
		c-0.47,0.44-0.95,0.87-1.38,1.35c-1.39,1.53-1.51,3.1-0.32,4.82c1.31,1.9,2.76,2.37,4.54,1.81c0.37-0.12,0.75-0.22,1.08-0.32
		C218.4,345.29,217.89,342.54,216.85,340.51z M199.75,350.94c0.98,0.36,1.72,0.66,2.48,0.9c0.69,0.22,1.26-0.01,1.69-0.58
		c0.73-0.97,0.91-2.05,0.56-3.2c-0.4-1.3-0.85-2.6-1.3-3.88c-0.13-0.37-0.32-0.75-0.56-1.06c-0.81-1.06-2.39-0.96-3.01,0.22
		c-0.25,0.47-0.33,1.07-0.37,1.61C199.07,346.97,199.43,348.95,199.75,350.94z M397.94,298.56c-0.37-0.25-0.43-0.32-0.5-0.33
		c-0.4-0.05-0.8-0.06-1.2-0.14c-2.74-0.56-5.26,0.21-7.69,1.36c-1.04,0.49-1.91,1.23-2.17,2.43c-0.08,0.34,0.05,0.72,0.11,1.24
		c0.62-0.2,1.07-0.34,1.52-0.49c2.05-0.67,4.01-1.58,6.23-1.78C395.64,300.72,396.79,299.67,397.94,298.56z M212.56,363.55
		c-0.12,0.65-0.27,1.25-0.33,1.86c-0.04,0.4,0.06,0.86,0.54,0.91c0.26,0.03,0.63-0.13,0.81-0.34c0.25-0.28,0.47-0.67,0.53-1.04
		c0.1-0.7,0.2-1.45,0.07-2.13c-0.18-1-0.08-1.88,0.42-2.77c0.27-0.48,0.45-1.03,0.57-1.56c0.08-0.35,0.12-0.8-0.49-1.02
		c-0.22,0.11-0.53,0.19-0.76,0.39c-1.95,1.61-3.18,3.76-4.43,5.9c-0.16,0.28-0.02,0.74-0.02,1.14
		C210.92,365.2,211.39,363.71,212.56,363.55z M226.39,362.48c-0.52,1.29,0.18,2.23,1.07,3.1c0.68,0.67,1.44,0.75,2.09,0.06
		c0.66-0.69,1.29-1.36,2.16-1.83c0.72-0.39,1-1.2,1.01-2.06c0.02-1.18-0.76-1.86-1.84-1.48c-0.67,0.23-1.28,0.64-1.92,0.96
		C228.19,361.61,227.41,361.99,226.39,362.48z M222.85,354.33c-1.14,1.88-2.5,3.41-2.78,5.59c0.54,0.5,1.1,1.02,1.67,1.55
		c0.34-0.67,0.61-1.2,0.84-1.66c0.82-0.01,1.17,0.88,1.89,0.58C225.21,357.46,224.95,356.38,222.85,354.33z M248.9,337.04
		c0.2,0.74,0.42,1.75,0.76,2.71c0.29,0.81,1.01,1.21,1.81,1.44c0.79,0.23,1.5-0.21,1.54-1.03c0.03-0.54,0.06-1.33-0.25-1.58
		c-1.48-1.22-1.81-2.67-1.37-4.46c0.14-0.55-0.75-0.96-1.21-0.55c-0.4,0.35-0.8,0.8-0.98,1.29
		C248.99,335.44,249.01,336.11,248.9,337.04z M224.72,352.5c0.97,0.74,1.51,1.74,2.54,2.33c0.54-0.52,1.02-0.95,1.45-1.41
		c0.21-0.23,0.37-0.53,0.5-0.82c0.7-1.5,0.43-2.07-1.22-2.63c-0.37-0.12-0.75-0.19-1.27-0.31
		C226.06,350.6,225.43,351.5,224.72,352.5z M222.36,350.05c0.19-0.09,0.42-0.15,0.59-0.29c2.05-1.62,2.91-4,4.02-6.23
		c0.03-0.07,0.06-0.18,0.03-0.24c-0.11-0.2-0.21-0.41-0.37-0.55c-0.08-0.07-0.33-0.03-0.43,0.05c-0.25,0.2-0.5,0.42-0.67,0.68
		c-0.91,1.42-1.81,2.86-2.67,4.31c-0.24,0.41-0.38,0.89-0.52,1.35C222.25,349.4,221.99,349.71,222.36,350.05z M207.65,367.99
		c-0.82,2.44-0.65,2.86,1.62,4.61c0.92-1.18,1.1-2.43,0.5-3.92C209.14,368.47,208.47,368.25,207.65,367.99z"/>
	<path class="st0" d="M489.57,433.96c-0.78,0-1.41-0.07-2.02,0.01c-5.42,0.75-10.85,1.5-16.27,2.31c-4.06,0.61-8.12,1.25-12.17,1.96
		c-6.9,1.22-13.79,2.49-20.68,3.77c-5.38,1-10.76,2-16.13,3.07c-8.68,1.73-17.36,3.46-26.03,5.28c-10.72,2.25-21.4,4.64-32.12,6.85
		c-6.7,1.38-13.45,2.55-20.19,3.77c-7.53,1.37-15.06,2.71-22.59,4.04c-5.39,0.95-10.8,1.82-16.19,2.76
		c-4.52,0.79-9.03,1.65-13.55,2.45c-4.2,0.75-8.41,1.47-12.62,2.21c-0.29,0.05-0.58,0.13-1.1,0.25c0.5,0.64,0.83,1.17,1.27,1.61
		c1.28,1.29,2.17,2.79,2.64,4.54c0.27,1.02,0.65,1.97,1.27,2.84c0.72,1.01,0.98,2.19,0.85,3.45c-0.07,0.64-0.05,1.29-0.09,1.93
		c-0.04,0.9,0.12,1.75,0.56,2.56c0.74,1.36,1.24,2.81,1.33,4.36c0.06,0.98,0.5,1.69,1.22,2.25c0.5,0.4,1.06,0.73,1.59,1.1
		c0.92,0.65,1.86,1.28,2.76,1.95c2.07,1.53,2.91,3.79,3.57,6.14c0.08,0.29,0.04,0.64-0.02,0.95c-0.15,0.81-0.85,1.24-1.62,0.98
		c-0.46-0.15-0.89-0.37-1.32-0.6c-1.63-0.88-3.26-1.76-4.87-2.68c-0.77-0.44-1.51-0.93-2.22-1.45c-1.04-0.77-2.03-1.59-2.48-2.89
		c-0.27-0.76-0.87-1.16-1.71-1.02c-1,0.16-1.93,0.19-2.63-0.74c-0.8-1.06-1.4-2.17-1.11-3.56c0.07-0.31,0.26-0.65,0.19-0.93
		c-0.49-2.03,0.27-3.8,1.01-5.6c0.3-0.74,0.52-1.53,0.69-2.32c0.49-2.37-0.64-3.77-3.02-3.81c-0.47-0.01-0.95,0-1.56,0
		c-0.12-0.38-0.33-0.75-0.32-1.11c0.06-2.36-0.72-4.42-2.1-6.3c-0.28-0.38-0.5-0.84-0.61-1.29c-0.42-1.78,0.01-2.65,1.86-3.81
		c-0.04-0.41-0.14-0.87-0.14-1.33c0.03-2.83,1.37-4.54,4.13-5.17c1.65-0.38,3.32-0.64,4.98-0.93c7.46-1.3,14.92-2.58,22.37-3.9
		c7.84-1.39,15.68-2.84,23.52-4.25c6.18-1.11,12.38-2.13,18.55-3.31c7.99-1.53,15.97-3.11,23.93-4.78
		c8.2-1.72,16.36-3.61,24.55-5.33c7.56-1.59,15.14-3.09,22.72-4.58c7.82-1.54,15.65-3.04,23.49-4.51
		c7.28-1.36,14.57-2.71,21.87-3.97c3.73-0.64,7.5-1.07,11.24-1.6c6.46-0.92,12.97-1.5,19.29-3.26c1.18-0.33,2.4-0.36,3.57,0.11
		c1.92,0.77,2.8,2.35,3.11,4.29c0.11,0.71,0.13,1.45,0.12,2.17c-0.05,2.98-0.11,5.97-0.18,8.95c-0.11,4.11-0.33,8.22-0.33,12.33
		c0,8.13-1.21,16.05-3.68,23.79c-0.98,3.07-1.77,6.19-2.63,9.3c-2.6,9.34-5.9,18.41-10.65,26.91c-2.44,4.36-4.68,8.83-7.04,13.23
		c-1.98,3.69-4.02,7.35-5.99,11.05c-1.81,3.42-3.69,6.79-5.8,10.04c-3.04,4.68-6.58,8.96-10.53,12.89
		c-5.49,5.46-11.32,10.54-17.28,15.48c-2.3,1.9-4.49,3.92-6.66,5.97c-2.3,2.17-4.94,3.87-7.53,5.64
		c-6.47,4.4-13.17,8.43-19.89,12.42c-7.35,4.37-14.84,8.49-22.68,11.92c-7.46,3.27-14.92,6.52-22.67,9.08
		c-5.99,1.97-12.11,3.37-18.34,4.29c-2.31,0.34-4.62,0.74-6.93,1.08c-5.43,0.8-10.9,1.14-16.38,1.37
		c-6.77,0.28-13.54,0.55-20.31,0.75c-5.56,0.17-11.12,0-16.68-0.32c-7.42-0.43-14.74-1.5-22.07-2.69c-8.62-1.4-17.03-3.6-25.32-6.26
		c-7.07-2.26-13.92-5.12-20.57-8.43c-6.57-3.27-13.07-6.69-19.33-10.51c-3.37-2.06-6.69-4.21-9.91-6.5
		c-4.46-3.18-8.89-6.42-13.15-9.86c-7.22-5.84-13.84-12.32-19.98-19.3c-5.55-6.3-10.74-12.88-15.62-19.7
		c-5.3-7.41-10.2-15.09-14.51-23.12c-0.53-0.99-1.13-1.94-1.06-3.16c0.02-0.44-0.15-1.05-0.46-1.33c-1.39-1.23-1.98-2.93-2.76-4.5
		c-1.18-2.38-2.25-4.81-3.28-7.27c-0.65-1.56-0.59-3.13,0.37-4.63c0.65-1.02,1.58-1.66,2.66-1.97c3.1-0.88,6.2-1.78,9.35-2.44
		c3.7-0.77,7.45-1.33,11.19-1.92c4.46-0.71,8.93-1.32,13.38-2.03c4.21-0.68,8.42-1.41,12.62-2.17c5.7-1.04,11.4-2.13,17.1-3.2
		c6.4-1.21,12.83-2.34,19.21-3.67c5.51-1.15,10.97-2.59,16.47-3.8c6.53-1.43,13.05-2.91,19.69-3.75c5.43-0.69,10.84-1.59,16.17-2.88
		c2.35-0.57,4.65-1.32,6.97-1.96c0.77-0.21,1.55-0.46,2.34-0.54c2.64-0.24,4.66,1.18,5.27,3.6c0.59,2.38-0.53,4.74-2.87,5.75
		c-1.33,0.57-2.71,1.03-4.11,1.42c-4.81,1.35-9.7,2.38-14.61,3.24c-3.49,0.61-6.99,1.15-10.5,1.6c-4.08,0.52-8.09,1.38-12.1,2.29
		c-7.85,1.79-15.68,3.65-23.54,5.37c-3.7,0.81-7.45,1.32-11.18,2.01c-5.54,1.03-11.07,2.13-16.61,3.15
		c-6.81,1.25-13.62,2.52-20.45,3.67c-6.19,1.05-12.41,1.94-18.61,2.93c-1.67,0.27-3.32,0.65-4.97,1.01
		c-0.45,0.1-0.88,0.35-1.22,0.49c-0.34,0.84,0.07,1.38,0.37,1.93c2.49,4.61,4.99,9.21,7.47,13.83c0.87,1.63,1.67,3.3,2.55,4.92
		c0.53,0.99,1.12,1.96,1.74,2.9c4.46,6.71,9.02,13.36,14.11,19.62c4.47,5.51,9.12,10.86,14.16,15.87
		c6.26,6.21,13.07,11.74,20.17,16.92c5.66,4.14,11.5,8.03,17.63,11.47c7.81,4.39,15.72,8.58,23.99,12.02
		c5.28,2.2,10.73,3.97,16.24,5.55c10.9,3.11,22.02,4.96,33.28,6c8.28,0.76,16.59,0.85,24.9,0.49c6.53-0.29,13.05-0.55,19.58-0.82
		c6.94-0.29,13.81-1.2,20.65-2.42c5.57-1,11.04-2.37,16.35-4.31c4.62-1.69,9.2-3.47,13.72-5.4c4.74-2.02,9.45-4.15,14.06-6.45
		c4.03-2.01,7.98-4.22,11.86-6.53c6.57-3.92,13.05-8,19.58-11.99c4.08-2.49,7.8-5.42,11.22-8.76c1.09-1.07,2.29-2.03,3.47-3.01
		c7.47-6.27,14.97-12.52,21.34-19.98c0.51-0.6,1.19-1.07,1.15-2.03c-0.01-0.32,0.39-0.67,0.62-1c1.99-2.84,4.09-5.6,5.93-8.52
		c1.76-2.79,3.3-5.73,4.84-8.65c4.14-7.84,8.24-15.7,12.34-23.57c2.43-4.66,4.36-9.53,5.86-14.56c1.93-6.49,3.81-12.99,5.71-19.49
		c1.32-4.51,2.05-9.11,2.18-13.81c0.17-6.12,0.31-12.24,0.45-18.36C489.69,435.29,489.61,434.67,489.57,433.96z"/>
	<path class="st0" d="M310.39,420.41c1.48-2.03,2.62-3.95,3.5-6.04c0.8-1.93,1.75-3.8,2.61-5.71c0.42-0.95,0.76-1.94,1.16-2.9
		c0.5-1.18,0.5-2.38,0.09-3.54c-0.29-0.83-0.32-1.58,0.12-2.31c0.57-0.95,1.01-2.02,2.18-2.49c1.88-0.75,3.79-1.35,5.82-1.53
		c1.12-0.1,2.25-0.18,3.36-0.39c0.41-0.08,1-0.43,1.09-0.77c0.23-0.86,0.8-1.16,1.52-1.36c1.32-0.37,2.62-0.84,3.96-1.05
		c1.52-0.24,2.98-0.64,4.45-1.07c2.72-0.79,5.46-1.42,8.33-0.7c1.3,0.32,2.54-0.09,3.75-0.6c1.93-0.82,3.85-1.67,5.84-2.32
		c4.61-1.5,9.19-1.25,13.7,0.55c0.8,0.32,1.4,0.78,1.81,1.51c0.87,1.54,1.76,3.05,1.82,4.92c0.05,1.45,0.37,2.87,0.99,4.21
		c0.79,1.71,0.77,3.42,0.03,5.14c-0.38,0.89-0.66,1.78-0.7,2.79c-0.04,1.25,0.41,2.2,1.36,2.93c0.9,0.69,1.84,1.32,3.04,1.37
		c1.6,0.06,3.23,0.27,4.71-0.84c-0.04-1.55-0.54-3.01-1-4.44c-0.46-1.43-0.51-2.85-0.43-4.29c0.03-0.53,0.18-1.13,0.48-1.55
		c0.7-0.96,0.96-2.02,1.06-3.16c0.17-1.87,0.58-3.63,1.88-5.12c0.5-0.58,0.84-1.42,0.96-2.19c0.4-2.57,2.1-4.12,4.09-5.42
		c2.51-1.64,5.28-2.76,8.09-3.75c0.82-0.29,1.74-0.33,2.61-0.42c3.21-0.33,6.43-0.52,9.64,0.1c0.23,0.04,0.48,0.01,0.82,0.01
		c0.16-0.2,0.39-0.42,0.54-0.69c0.53-0.92,1.38-1.31,2.37-1.49c4.75-0.87,9.51-1.7,14.24-2.63c1.96-0.39,4.01-0.34,5.9-1.22
		c0.81-0.38,1.74-0.18,2.56,0.3c0.78,0.45,0.98,1.37,0.31,2.04c-0.73,0.73-1.57,1.39-2.44,1.95c-1.69,1.09-3.44,2.1-5.17,3.14
		c-0.49,0.29-0.97,0.58-0.99,1.36c0.29,0.2,0.61,0.43,0.93,0.64c0.79,0.51,1.23,1.24,1.51,2.12c0.33,1.07,0.65,2.16,1.07,3.2
		c0.91,2.28,1.08,4.69,1.41,7.08c0.24,1.67,0.35,3.36,0.58,5.04c0.1,0.71,0.32,1.41,0.57,2.09c0.44,1.22,0.79,2.44,0.76,3.76
		c-0.01,0.56,0.05,1.13,0.14,1.68c0.26,1.51,1.44,3.2,3.57,3.36c4.34,0.32,8.67,0.75,13-0.34c-0.02-0.26,0.03-0.53-0.08-0.71
		c-0.7-1.15-0.74-2.25,0.08-3.38c0.51-0.7,0.47-1.52,0.39-2.33c-0.07-0.74,0.28-1.23,0.86-1.6c0.99-0.63,2.08-0.87,3.23-0.64
		c1.06,0.21,1.85,1.14,1.48,2.11c-1.21,3.12,0.52,5.25,2.23,7.43c0.1,0.13,0.21,0.25,0.33,0.35c0.12,0.1,0.26,0.18,0.53,0.36
		c0.33-0.2,0.78-0.38,1.11-0.69c1.06-0.99,2.07-2.03,3.1-3.05c2.29-2.27,3.11-5.06,2.73-8.18c-0.23-1.91-0.6-3.83-1.15-5.68
		c-0.73-2.47-1.61-4.9-2.56-7.3c-1.04-2.64-1.79-5.36-2.29-8.13c-0.48-2.7-1.91-4.4-4.54-5.02c-1.41-0.33-2.85-0.5-4.29-0.71
		c-1.02-0.15-2.09-0.04-3.16-0.54c-0.15-1-0.19-1.81,0.89-2.45c0.97-0.58,1.81-1.29,3.03-1.32c0.92-0.03,1.7-0.54,2.31-1.2
		c1.12-1.22,2.51-1.31,4-1.09c0.08,0.01,0.16,0.03,0.24,0.05c2.8,0.81,5.72,0.81,8.57,1.26c1.5,0.23,2.82-0.14,4.15-0.9
		c3.63-2.09,7.37-3.97,11.47-5.02c1.33-0.34,2.57-0.28,3.77,0.26c0.56,0.25,1.22,0.64,1.49,1.14c0.46,0.88,1.16,1.27,1.97,1.44
		c0.76,1.79,0.88,3.59,0.98,5.34c0.17,2.99-0.26,5.95-1.03,8.84c-0.32,1.19-0.9,1.64-1.82,1.59c-1.02-0.05-1.86-0.65-2.14-1.65
		c-0.17-0.62-0.22-1.27-0.31-1.91c-0.21-1.48-0.82-2.8-1.84-3.88c-1.28-1.34-2.61-2.63-3.98-3.89c-0.76-0.7-1.68-0.89-2.69-0.41
		c-1.09,0.52-2.22,0.96-3.29,1.51c-0.98,0.5-1.71,1.17-1.4,2.49c0.1,0.4-0.16,0.93-0.36,1.34c-0.24,0.5-0.63,0.94-0.9,1.43
		c-1.35,2.46-0.82,4.83,0.4,7.13c0.47,0.88,1.52,0.97,2.27,0.27c0.46-0.44,0.82-0.99,1.25-1.47c1.37-1.52,3.44-1.41,4.5,0.28
		c0.28,0.44,0.35,1.07,0.34,1.62c-0.01,1.69-0.08,3.38-0.18,5.07c-0.08,1.38-0.11,2.74,0.42,4.05c0.09,0.22,0.13,0.47,0.16,0.7
		c0.26,1.78-0.91,2.94-2.72,2.67c-0.47-0.07-0.93-0.34-1.4-0.36c-0.71-0.03-1.47-0.06-2.14,0.14c-1.41,0.43-1.66,1.21-1.06,2.59
		c0.44,1.03,0.81,2.1,1.2,3.15c0.11,0.3,0.19,0.62,0.3,0.92c0.73,1.83,2.1,2.61,4,2.26c0.47-0.09,0.94-0.23,1.39-0.41
		c2.85-1.14,5.83-1.26,8.8-0.98c2.09,0.19,3.99-0.05,5.86-0.98c0.79-0.39,1.66-0.61,2.5-0.9c1.77-0.62,3.39-1.48,4.78-2.75
		c0.71-0.65,1.49-1.23,2.21-1.88c1.72-1.56,3.85-1.95,6.04-2.13c0.55-0.05,1.13,0.05,1.67,0.19c1.21,0.32,1.82,1.42,1.41,2.62
		c-0.18,0.52-0.47,1.04-0.83,1.46c-0.58,0.66-1.2,1.32-1.91,1.83c-4.59,3.32-9.32,6.38-14.94,7.7c-1.49,0.35-3,0.6-4.51,0.88
		c-3.26,0.61-6.53,1.03-9.86,0.87c-1.79-0.08-3.54,0.22-5.25,0.74c-1.85,0.56-3.68,1.18-5.53,1.76c-3.46,1.1-6.44,2.93-8.74,5.78
		c-0.73,0.9-1.59,1.63-2.66,2.03c-0.67,0.25-1.4,0.45-2.1,0.47c-1.19,0.04-2.16-0.96-2.14-2.15c0.01-0.71,0.16-1.43,0.26-2.25
		c-0.31-0.05-0.61-0.16-0.91-0.13c-1.6,0.16-3.21,0.32-4.8,0.56c-1.83,0.28-3.64,0.67-5.46,0.98c-1.59,0.27-3.17,0.6-4.77,0.75
		c-3.38,0.33-6.68,1.07-9.94,1.93c-2.72,0.72-5.38,1.69-8.09,2.45c-3.18,0.9-6.38,1.7-9.57,2.54c-0.31,0.08-0.63,0.13-0.95,0.16
		c-0.53,0.04-0.95-0.33-0.97-0.85c-0.04-0.82,0.03-1.62,0.63-2.26c0.5-0.52,0.96-1.1,1.53-1.53c2.32-1.74,4.66-3.38,7.67-3.88
		c3.75-0.63,5.24-3.41,5.48-7.74c0.14-2.39-0.77-4.58-1.64-6.75c-0.39-0.97-0.86-1.91-1.24-2.88c-0.67-1.68-0.96-3.42-0.54-5.21
		c0.37-1.59,0-3.01-0.76-4.41c-0.84-1.56-1.58-3.17-2.39-4.74c-0.61-1.19-1.53-2.08-2.84-2.46c-0.36-0.1-0.76-0.05-1.35-0.07
		c0.15,0.46,0.2,0.75,0.32,1.01c0.55,1.08,1.13,2.14,1.69,3.21c0.87,1.65,1.89,3.16,3.37,4.36c1.54,1.25,1.69,2,0.82,3.78
		c-0.8,1.64-1.22,3.28-0.94,5.13c0.36,2.37-0.41,4.62-0.98,6.89c-0.16,0.62-0.46,1.22-0.52,1.85c-0.17,1.8-1.11,3.17-2.34,4.38
		c-1.2,1.19-2.46,2.32-3.91,3.21c-3.15,1.94-6.27,3.93-9.48,5.78c-1.75,1.01-3.69,1.62-5.76,1.61c-1.77-0.01-3.54,0.01-5.31-0.04
		c-1.45-0.04-2.64-0.69-3.56-1.8c-0.97-1.17-1.88-2.39-2.91-3.7c-0.53,0.24-1.12,0.47-1.66,0.77c-0.73,0.41-1.25,0.97-1.36,1.88
		c-0.08,0.71-0.38,1.41-0.44,2.12c-0.18,1.93-1.05,3.52-2.23,5c-0.78,0.98-1.7,1.73-2.96,1.94c-1.18,0.2-2.08,0.87-2.87,1.67
		c-1.4,1.43-3.1,2.28-5,2.79c-0.93,0.25-1.85,0.58-2.79,0.77c-2.07,0.42-4.04,1.11-5.94,2.01c-1.76,0.83-3.61,1.33-5.55,1.57
		c-1.67,0.2-3.32,0.55-4.94,1.12c-1.97,0.71-3.97,1.25-6.11,1.35c-1.25,0.06-2.53,0.5-3.71,0.97c-1.43,0.57-2.78,0.73-4.21,0.11
		c-1.78-0.76-3.6-0.86-5.4-0.1c-2.64,1.11-5.46,1.4-8.25,1.7c-1.53,0.17-3.02,0.44-4.51,0.8c-0.77,0.19-1.59,0.31-2.38,0.27
		c-0.52-0.03-1.05-0.34-1.52-0.62c-0.44-0.26-0.5-0.92-0.14-1.26c0.4-0.39,0.85-0.74,1.3-1.08c1.47-1.14,2.91-2.3,4.42-3.38
		c1-0.72,1.55-1.67,1.61-2.83c0.11-2.41,0.24-4.84,0.12-7.25c-0.06-1.25-0.52-2.52-0.99-3.7c-0.7-1.73-1.24-3.48-1.44-5.35
		c-0.09-0.88-0.28-1.76-0.54-2.6c-0.16-0.5-0.55-0.92-0.8-1.3c-0.93,0.01-1.39,0.51-1.67,1.07c-0.62,1.21-1.22,2.45-1.68,3.73
		c-0.73,2.05-1.31,4.15-2,6.21c-0.64,1.92-1.45,3.77-2.78,5.33c-0.41,0.48-0.89,0.93-1.41,1.3c-0.87,0.63-1.82,0.59-2.73,0.06
		c-0.83-0.49-1.62-1.05-2.46-1.51c-0.96-0.53-1.7-1.17-1.94-2.31c-0.23-1.11-1.08-1.75-1.98-2.21c-0.1-0.79,0-1.59-0.32-2.13
		c-0.39-0.65-1.08-1.19-1.75-1.59c-1.27-0.77-2.3-0.09-3.3,0.79c-0.2,1.25-0.3,2.51,0.06,3.79c0.17,0.62,0.26,1.26,0.34,1.9
		c0.23,1.78,0.64,3.46,2.08,4.74c0.39,0.35,0.59,0.95,0.81,1.46c0.33,0.74,0.61,1.49,0.89,2.25c0.79,2.16,2.57,3.53,5.35,3.04
		c1.19-0.21,2.36-0.5,3.54-0.76c1.23-0.27,2.24,0.16,3.01,1.1c0.93,1.13,0.78,2.51-0.38,3.4c-0.37,0.29-0.83,0.55-1.29,0.64
		c-1.89,0.38-3.79,0.78-5.7,1.01c-1.29,0.16-2.55,0.33-3.76,0.81c-3.25,1.31-6.68,1.8-10.13,2.16c-1.76,0.18-3.52,0.39-5.28,0.6
		c-1.2,0.14-2.37,0.33-3.6,0.03c-0.57-0.14-1.27,0.1-1.88,0.27c-2.56,0.7-5.12,1.42-7.67,2.16c-1.33,0.39-2.64,0.67-4.04,0.41
		c-1.39-0.26-2.51,0.49-3.55,1.26c-1.55,1.15-3.04,2.39-4.58,3.56c-0.89,0.67-1.83,1.28-2.83,1.98c-0.49-0.5-0.86-0.89-1.37-1.41
		c-0.77,0.42-1.58,0.87-2.41,1.31c-0.89,0.47-0.8,1.52-1.27,2.17c-0.77,0.41-1.46,0.37-2.15,0.01c-1.07-0.57-2.16-1.08-3.19-1.71
		c-2.03-1.22-4.15-1.29-6.26-0.42c-1.25,0.52-2.42,1.27-3.54,2.03c-1.33,0.91-2.56,1.95-3.85,2.92c-3.52,2.65-7.5,3.98-11.88,4.19
		c-1.67,0.08-3.21-0.29-4.56-1.29c-0.75-0.55-1.52-0.81-2.48-0.62c-0.62,0.13-1.29,0.09-1.92,0c-1.18-0.17-2.31-0.48-3.53,0.04
		c-0.51,0.22-1.33,0.07-1.85-0.21c-1.46-0.79-2.95-1.23-4.63-1.08c-0.53,0.05-1.11-0.17-1.64-0.34c-0.54-0.17-1.03-0.47-1.57-0.64
		c-3.47-1.06-5.07-3.79-6.12-6.94c-0.27-0.8,0.02-1.81-0.3-2.57c-0.33-0.77-1.21-1.29-1.67-2.03c-0.37-0.59-0.54-1.33-0.68-2.03
		c-0.26-1.26-0.5-2.53-0.64-3.81c-0.13-1.12-0.19-2.25-0.14-3.37c0.11-2.5,0.31-4.99-0.12-7.48c-0.05-0.31-0.08-0.65-0.02-0.96
		c0.49-2.62,0.98-5.24,2.06-7.69c0.69-1.56,1.77-2.86,3.26-3.79c1.51-0.93,2.99-1.91,4.49-2.86c0.56-0.35,1.06-0.68,1.08-1.46
		c0.02-0.78,0.67-1.12,1.32-1.18c0.71-0.07,1.48-0.08,2.14,0.15c1.8,0.6,3.57,0.91,5.43,0.32c0.37-0.12,0.8-0.05,1.2-0.06
		c1.67-0.08,2.49-0.53,2.76-2.1c0.25-1.4,1.11-1.86,2.22-2.21c0.84-0.26,1.55-0.05,2.22,0.56c1.18,1.09,1.99,2.41,2.03,3.99
		c0.08,3.39,1.18,6.46,2.59,9.47c1.13,2.4,1.46,4.93,0.89,7.55c-0.4,1.84-1.63,2.3-3.18,1.15c-1-0.74-1.7-1.72-2.18-2.85
		c-0.64-1.48-1.29-2.96-1.86-4.46c-0.72-1.89-1.97-3.3-3.67-4.36c-0.95-0.59-1.89-1.21-2.73-1.76c-0.3-0.02-0.47-0.07-0.62-0.02
		c-4.74,1.37-4.08,1.05-7.1,5.21c-0.79,1.09-1.17,2.3-1.13,3.62c0.03,1.05-0.13,2.07-0.24,3.11c-0.37,3.46-0.21,6.93,0.35,10.36
		c0.11,0.69,0.41,1.4,0.79,2c0.66,1.04,1.17,2.1,1.23,3.35c0.06,1.27,0.8,2.07,1.92,2.56c0.3,0.13,0.59,0.27,0.89,0.38
		c1.65,0.58,2.8,1.55,2.88,3.44c0.01,0.23,0.13,0.47,0.23,0.68c0.43,0.87,1.48,1.29,2.23,0.73c0.94-0.7,1.9-1.13,3.07-1.28
		c0.93-0.12,1.61-0.73,1.92-1.65c0.28-0.84,0.52-1.69,0.72-2.55c0.22-0.94,0.36-1.9,0.53-2.85c0.45-2.56,2.65-4.02,5.15-4.42
		c1.08-0.17,2.42,0.64,2.88,1.82c1.02,2.58,1.24,5.17-0.3,7.66c-0.47,0.75-1.06,1.42-1.55,2.16c-0.76,1.13-1.5,2.28-2.24,3.44
		c-0.12,0.19-0.13,0.44-0.24,0.81c2.27,0.04,4.39-0.17,6.35-1.16c1.1-0.56,1.96-1.45,2.42-2.62c0.44-1.12,0.84-2.27,1.11-3.44
		c0.44-1.9,1.08-3.7,2.11-5.37c0.72-1.17,1.35-2.38,2-3.59c0.44-0.8,0.67-1.64,0.38-2.55c-0.26-0.83-0.07-1.62,0.39-2.31
		c0.7-1.04,1.07-2.18,1.14-3.4c0.05-0.85,0.3-1.57,0.82-2.21c0.79-0.99,1.23-2.03,0.88-3.36c-0.12-0.47,0.09-1.12,0.34-1.59
		c0.54-1,0.94-2.01,1.2-3.14c0.17-0.75,0.66-1.46,1.13-2.09c1.5-2.02,2.69-4.18,3.61-6.53c1.12-2.89,1.99-5.78,1.89-8.92
		c-0.07-2.04,1.03-3.3,2.85-4.04c0.65-0.27,1.23-0.2,1.85,0.11c0.75,0.38,1.32,0.91,1.73,1.64c0.93,1.69,1.86,3.38,2.78,5.08
		c0.57,1.06,1.05,2.18,1.7,3.2c0.81,1.29,1.64,2.6,2.66,3.72c1.27,1.39,2.3,2.9,3,4.63c0.55,1.36,1.26,2.6,2.16,3.75
		c0.79,1.02,1.52,2.08,2.18,3.19c1.5,2.51,3.46,4.65,5.38,6.83c0.42,0.48,0.92,0.91,1.4,1.33c1.52,1.32,3.08,2.6,4.56,3.95
		c1.5,1.37,3.15,2.18,5.25,1.95c0.71-0.08,1.45,0,2.17,0.07c1.42,0.13,2.49-0.47,3.4-1.48c0.78-0.86,1.23-1.88,1.48-3
		c0.97-4.36,0.75-8.65-0.91-12.82c-0.63-1.58-1.11-3.15-1.21-4.89c-0.15-2.88-1.16-5.47-3.09-7.71c-0.72-0.83-1.11-1.94-1.65-2.93
		c-0.43-0.77-0.8-1.58-1.29-2.31c-1.01-1.5-2.43-2.05-4.2-1.61c-0.23,0.06-0.47,0.12-0.7,0.2c-1.34,0.44-2.63,0.66-3.91-0.29
		c-0.41-0.3-1.08-0.22-1.62-0.38c-0.46-0.13-0.93-0.29-1.33-0.54c-0.64-0.39-0.56-1.49,0.11-1.82c0.36-0.17,0.76-0.28,1.15-0.35
		c2.26-0.38,4.35-1.24,6.32-2.34c2.4-1.34,4.96-1.83,7.67-1.81c0.56,0,1.13,0,1.69-0.04c3.77-0.27,6.48,1.51,8.56,4.45
		c0.65,0.92,1.19,1.91,1.78,2.88c0.8,1.32,1.82,2.41,3.09,3.34c2.47,1.8,4.84,3.74,7.26,5.62
		C309.59,419.81,309.91,420.05,310.39,420.41z M413.5,406.7c0-1.04,0.05-2.09-0.02-3.13c-0.06-0.95,0.01-2.08-0.75-2.73
		c-1.17-1-1.17-2.16-0.99-3.49c0.17-1.26-0.24-2.34-1.08-3.33c-0.72-0.86-1.47-1.76-1.89-2.78c-0.78-1.86-2.06-3.01-3.93-3.62
		c-0.99-0.32-1.95-0.75-2.96-1.03c-0.69-0.19-1.42-0.28-2.14-0.29c-1.11-0.02-1.79,0.4-1.91,1.45c-0.25,2.19-1.39,3.94-2.62,5.62
		c-1.8,2.47-1.88,5.04-0.8,7.76c0.65,1.64,1.39,3.25,2.01,4.9c1.07,2.83,2.74,5.25,4.84,7.42c1.87,1.93,4.06,2.83,6.75,2.39
		c0.55-0.09,1.09-0.28,1.64-0.38c2-0.33,3.03-1.6,3.55-3.48C413.69,410.22,413.6,408.46,413.5,406.7z M329.62,400.73
		c0.11,0.78,0.22,1.49,0.31,2.21c0.43,3.49,0.42,7.06,1.84,10.38c0.36,0.84,0.33,1.73-0.47,2.43c-0.47,0.41-0.51,0.99-0.45,1.56
		c0.39,3.68,0.88,7.35,2.54,10.73c0.67,1.37,1.35,2.74,2.04,4.1c0.73,1.45,1.65,2.75,2.92,3.8c0.58,0.48,1.2,0.77,1.96,0.79
		c1.19,0.04,2.39,0.14,3.59,0.22c1.55-0.93,2.64-2.21,2.33-4.12c-0.24-1.5-0.01-2.84,0.83-4.09c-0.36-0.48-0.61-0.89-0.94-1.23
		c-1.4-1.42-1.95-3.11-1.73-5.07c0.06-0.56,0.17-1.12,0.15-1.68c-0.05-1.12-0.07-2.26-0.29-3.35c-0.45-2.2-0.85-4.45-1.62-6.54
		c-0.8-2.17-2.03-4.19-3.07-6.28c-0.21-0.43-0.38-0.89-0.6-1.32c-0.22-0.43-0.46-0.85-0.72-1.25c-0.88-1.32-1.94-2.33-3.67-2.36
		c-0.88-0.01-1.76-0.15-2.63-0.25C330.93,399.33,330.22,399.74,329.62,400.73z M247.39,430.58c0.47,1.01,1.23,1.7,2.16,2.23
		c0.63,0.36,1.25,0.74,1.81,1.19c0.91,0.72,1.06,1.53,0.56,2.57c-0.33,0.7-0.86,1.18-1.58,1.39c-0.46,0.13-0.94,0.18-1.42,0.23
		c-1.98,0.19-3.35,1.39-4.69,2.71c-1.2,1.19-1.46,2.65-1.42,4.21c0.04,1.52-0.44,2.82-1.31,4.05c-0.31,0.44-0.55,0.99-0.64,1.52
		c-0.33,1.9,0.95,3.24,2.32,3.82c1.03,0.44,2.12,0.81,3.21,1c1.45,0.25,2.79,0.73,4.1,1.35c1.43,0.68,2.86,1.36,4.39,2.1
		c0.29-0.52,0.57-0.9,0.72-1.33c0.17-0.47,0.39-0.82,0.83-1.11c2-1.35,3.98-2.73,6.15-3.8c0.65-0.32,1.29-0.67,1.89-1.07
		c0.98-0.64,1.31-1.34,0.93-2.47c-0.35-1.05-0.8-2.12-1.43-3.03c-0.91-1.32-1.94-2.58-3.05-3.73c-4.62-4.74-7.89-10.32-10.42-16.38
		c-0.14-0.33-0.42-0.6-0.68-0.97C247.57,426.41,247.52,428.51,247.39,430.58z M374.93,422.6c-1.02-0.73-1.35-1.56-1.23-2.62
		c0.1-0.92-0.3-1.73-0.86-2.44c-0.5-0.63-1.02-1.25-1.52-1.87c-0.91-1.13-2.09-1.74-3.55-1.78c-0.72-0.02-1.46-0.08-2.17,0.03
		c-2.77,0.45-5.54,0.93-8.3,1.47c-0.52,0.1-1.03,0.44-1.44,0.79c-0.88,0.74-1.36,1.72-1.35,2.9c-1.06,1.52-0.56,3.05-0.06,4.61
		c0.75,2.32,2.06,4.36,3.26,6.45c0.7,1.21,1.89,2.02,3.34,2.17c1.69,0.18,3.39,0.15,5-0.47c0.5-0.19,1.13-0.47,1.35-0.9
		c0.66-1.24,1.79-1.87,2.94-2.4c1.47-0.68,2.49-1.76,3.27-3.1C374.08,424.61,374.42,423.71,374.93,422.6z M366.46,398.73
		c-0.67-0.89-1.42-1.59-1.77-2.44c-0.58-1.42-1.68-1.86-2.99-2.07c-0.63-0.1-1.29-0.14-1.92-0.07c-1.77,0.2-3.53,0.19-5.3,0.01
		c-1.64-0.17-3.03,0.22-4.06,1.63c0.38,0.74,0.78,1.51,1.18,2.28c-0.49,0.75-0.93,1.42-1.33,2.03c0.07,0.24,0.06,0.45,0.16,0.54
		c1.18,1.06,1.41,2.36,1.36,3.91c-0.06,1.8,0.87,3.26,2.51,4.07c3.42,1.69,9.1,1.49,11.27-3.95c0.36-0.89,0.68-1.78,0.67-2.79
		C366.22,400.84,366.37,399.81,366.46,398.73z"/>
	<path class="st0" d="M334.93,529.94c-0.33,0.91,0.2,1.72,0.37,2.56c0.07,0.36,0.63,0.67,1.03,0.89c0.26,0.14,0.63,0.1,0.95,0.1
		c1.52-0.04,2.84,0.48,4.01,1.42c0.19,0.15,0.4,0.27,0.61,0.4c1.52,1,3.14,1.61,5.01,1.43c1.47-0.14,2.92,0,4.06,1.11
		c0.09,0.09,0.08,0.27,0.14,0.52c-0.54,0.06-1.06,0.11-1.75,0.19c2.38,2.45,4.71,4.65,7.67,6.05c1.02,0.48,1.98,1.07,2.96,1.64
		c1.34,0.77,2.01,1.98,2.41,3.46c0.65,2.37,0.18,4.46-1.22,6.4c-0.66,0.91-1.29,1.85-2.05,2.68c-0.66,0.71-1.52,0.64-2.07-0.14
		c-0.51-0.72-0.92-1.51-1.29-2.31c-0.74-1.62-1.55-3.19-2.62-4.62c-1.2-1.61-2.75-2.68-4.66-3.28c-4.48-1.4-8.76-3.3-12.78-5.68
		c-3.69-2.18-7.71-3.18-11.84-3.89c-1.34-0.23-2.72-0.29-4.07-0.45c-0.79-0.09-1.58-0.22-2.53-0.35c-0.46,0.54-1.02,1.12-1.47,1.77
		c-1.48,2.14-3.25,4-5.23,5.67c-0.68,0.57-1.35,1.15-2.01,1.75c-1.09,0.99-1.97,2.12-2.35,3.59c-0.76,2.91-2.44,5.24-4.67,7.18
		c-1.41,1.23-2.6,2.63-3.59,4.21c-0.38,0.61-0.9,1.13-1.44,1.8c0.06,1.34,0.13,2.78,0.2,4.23c0.13,2.58,0,5.13-0.6,7.66
		c-0.65,2.75-1.9,5.09-4.13,6.92c-1.18,0.97-2.21,2.11-3.27,3.21c-0.7,0.72-1.03,1.55-1.02,2.61c0,1.69-0.14,1.86-1.81,2.34
		c-1,0.29-1.73,0.83-2.32,1.63c-0.52,0.72-1.22,0.99-2.08,1.01c-1.44,0.03-2.89,0.24-4.48-0.09c-0.02-0.4,0.02-0.78-0.07-1.13
		c-0.07-0.27-0.24-0.65-0.46-0.72c-0.22-0.07-0.59,0.12-0.81,0.3c-0.3,0.24-0.52,0.58-0.86,0.98c-0.46-0.3-0.88-0.51-1.22-0.81
		c-0.23-0.2-0.3-0.64-0.54-0.78c-1.54-0.89-1.88-2.24-1.52-3.99c0.65-0.69,1.38-1.54,2.18-2.31c0.86-0.82,1.87-1.27,3.06-0.69
		c0.68,0.33,1.26,0.14,1.81-0.26c0.52-0.38,1-0.81,1.52-1.2c0.96-0.71,1.47-1.59,1.52-2.85c0.09-2.16,1.51-3.5,3.67-3.69
		c0.4-0.03,0.81,0.01,1.21-0.02c1.52-0.11,2.2-0.62,2.5-2.13c0.22-1.09,0.28-2.23,0.26-3.35c-0.03-1.12-0.28-2.24-0.37-3.36
		c-0.09-1.12-0.12-2.25-0.14-3.38c-0.03-1.37,0.66-2.28,1.89-2.82c0.44-0.2,0.95-0.32,1.3-0.62c0.61-0.5,1.25-1.04,1.65-1.71
		c0.82-1.38,1.55-2.83,2.18-4.3c0.41-0.97,1.03-1.6,1.98-1.97c0.68-0.26,1.34-0.57,2.02-0.8c1.49-0.51,2.41-1.58,2.99-2.98
		c0.37-0.89,0.63-1.83,0.94-2.75c0.57-1.71,1.36-3.25,2.76-4.47c1.03-0.9,2.01-1.87,2.94-2.87c0.93-1,1.72-2.11,2.65-3.1
		c2.87-3.05,5.79-6.05,8.65-9.11c0.88-0.94,1.69-1.95,2.43-3c0.45-0.64,0.83-1.4,1.01-2.16c0.24-0.99,0.7-1.8,1.43-2.46
		c1.04-0.94,1.71-2.11,2.42-3.29c0.79-1.3,1.79-2.47,2.75-3.66c0.75-0.91,1.23-1.86,1.08-3.09c-0.13-1.04-0.69-1.57-1.74-1.56
		c-0.78,0.01-1.37,0.38-1.88,0.95c-1.57,1.75-3.04,3.58-3.88,5.8c-0.62,1.64-1.52,2.89-2.99,3.94c-1.97,1.42-3.44,3.39-4.52,5.58
		c-1.61,3.27-4.02,5.6-7.53,6.71c-0.91,0.29-1.57,0.9-1.96,1.7c-1.54,3.18-3.88,5.7-6.32,8.19c-1.57,1.61-2.94,3.42-4.44,5.1
		c-1.35,1.51-2.87,2.82-4.61,3.88c-0.89,0.54-1.71,1.21-2.53,1.86c-1.08,0.85-1.66,1.94-1.58,3.36c0.03,0.56-0.04,1.13,0,1.69
		c0.26,3.87-2.4,6.43-5.39,7.41c-4.85,1.58-9.37,0.88-13.53-2.08c-0.79-0.56-1.56-1.15-2.39-1.62c-1.19-0.67-1.57-0.67-3.3-0.46
		c0.13,0.39,0.21,0.79,0.39,1.13c0.52,0.93,0.92,1.87,0.95,2.96c0.03,1.06,0.65,1.74,1.48,2.36c0.37-0.41,0.68-0.74,1.08-1.19
		c0.35,0.25,0.68,0.44,0.96,0.69c0.89,0.77,1.97,1.22,3.09,1.22c0.92,0,1.71,0.38,2.56,0.46c0.99,0.1,1.66,0.54,2.23,1.26
		c0.6,0.76,1.22,1.5,1.79,2.29c1.41,1.95,1.3,4.48-0.85,6.55c-1.16,1.12-2.47,1.08-3.66-0.02c-0.41-0.38-0.75-0.82-1.2-1.31
		c-1.07,0.85-2.17,0.98-3.37,0.44c-0.78-0.35-1.58-0.03-2.38,0.02c-2.01,0.13-4.02,0.18-6.03,0.25c-0.83,0.03-1.39-0.39-1.65-1.16
		c-0.2-0.6-0.32-1.24-0.44-1.86c-0.26-1.34-0.44-2.7-0.77-4.03c-0.41-1.58-0.67-3.1-0.17-4.74c0.35-1.14,0.33-2.39,0.48-3.58
		c0.12-1,0.39-1.9,1.42-2.35c0.58-0.25,0.75-0.79,0.9-1.35c0.3-1.17,0.78-2.26,1.63-3.1c2.02,0.42,2.02,0.42,4.2-0.03
		c1.37,1.15,3.02,1.95,4.78,2.57c0.6,0.21,1.23,0.45,1.75,0.81c1.32,0.9,2.88,1,4.34,1.37c1.25,0.31,2.29-0.2,3.19-1.23
		c1.24-1.41,1.84-3,1.98-4.81c0.04-0.56,0.05-1.12,0.08-1.77c0.39-0.25,0.77-0.55,1.2-0.74c2.13-0.91,3.84-2.38,5.23-4.19
		c0.78-1.01,1.73-1.7,2.91-2.05c1.99-0.6,3.62-1.76,5.06-3.18c1.83-1.81,3.41-3.83,4.98-5.87c1.14-1.49,1.77-2.74,1.02-4.55
		c-0.19-0.46,0.02-1.11,0.09-1.66c0.08-0.63,0.22-1.25,0.36-2.01c-0.63-0.12-1.16-0.28-1.69-0.31c-2.06-0.12-3.95-0.68-5.66-1.87
		c-1.31-0.92-2.66-1.78-4-2.67c0.14-0.4,0.25-0.69,0.41-1.14c-0.58-0.2-1.15-0.46-1.75-0.59c-0.79-0.17-1.59-0.28-2.39-0.34
		c-1.25-0.09-2.32-0.52-3.27-1.37c-0.87-0.79-1.96-1.08-3.13-1.06c-0.48,0.01-0.97,0.05-1.45,0.03c-1.15-0.05-2.23-0.31-3.11-1.12
		c-1.06-0.97-2.36-1.33-3.74-1.51c-0.72-0.1-1.43-0.23-2.15-0.3c-0.64-0.06-1.3-0.16-1.93-0.08c-1.75,0.23-3.48,0.55-5.23,0.83
		c-0.32,0.05-0.65,0.09-0.96,0.05c-1.84-0.23-3.68-0.43-5.51-0.73c-2.57-0.42-3.95-2.31-5.11-4.39c-0.19-0.35-0.26-0.76-0.43-1.27
		c-0.37-0.12-0.85-0.2-1.26-0.4c-1.38-0.66-2.36-1.66-2.61-3.25c-0.29-1.88-0.15-3.74,0.76-5.41c1.24-2.28,2.88-4.28,4.95-5.89
		c0.56-0.43,1.22-0.81,1.89-1c1.3-0.37,2.23,0.3,2.44,1.62c0.05,0.31,0.05,0.64,0.03,0.96c-0.02,0.32-0.1,0.64-0.14,0.96
		c-0.46,3.53-0.45,3.52,1.95,6.3c0.74,0.85,1.41,1.76,2.09,2.65c1.34,1.77,3,2.91,5.34,2.73c0.24-0.02,0.49,0.03,0.73,0
		c5.16-0.53,10.1,0.53,14.98,2.08c3.15,1,6.33,1.86,9.5,2.79c2.79,0.82,5.54,1.77,8,3.35c1.44,0.92,2.91,1.29,4.51,0.69
		c0.82,1.62,0.79,1.68,2.13,2.21c1.03,0.41,1.77,1.07,2.37,1.96c0.4,0.6,0.8,1.22,1.72,1.43c0.66-0.41,1.39-0.88,2.14-1.33
		c0.79-0.47,1.39-1.11,1.73-1.96c1.29-3.31,3.92-5.68,5.93-8.48c0.45-0.63,1.23-1.03,1.88-1.5c0.82-0.6,1.46-1.26,1.27-2.41
		c-0.1-0.62,0.26-1.08,0.73-1.44c0.32-0.24,0.66-0.46,1.01-0.66c1.38-0.77,2.36-1.93,3.13-3.28c0.44-0.77,0.84-1.56,1.28-2.33
		c0.28-0.49,0.53-1.03,0.93-1.41c2.03-1.94,3.63-4.29,5.86-6.04c0.82-0.65,1.6-1.34,2.45-2.06c0.04-0.48,0.1-0.95,0.1-1.42
		c0.01-0.76,0.25-1.41,0.7-2.02c0.57-0.78,1.14-1.56,1.65-2.39c0.38-0.61,0.77-1.26,0.95-1.94c0.36-1.38,0.29-2.72-0.89-3.78
		c-0.42-0.38-0.79-0.81-1.14-1.25c-0.9-1.12-1.34-2.4-1.06-3.83c0.36-1.81,0.84-3.6,1.2-5.42c0.34-1.71,1.65-2.33,3.08-2.7
		c0.93-0.24,1.7,0.34,2.26,1.1c0.55,0.75,0.71,1.62,0.72,2.52c0,0.48-0.13,0.97-0.06,1.44c0.16,1.19,0.74,2.1,1.94,2.53
		c1.2,0.42,2.39,0.86,3.86,1.4c2.3-1.01,3.4-3.13,3.71-5.74c0.11-0.94-0.03-1.94-0.21-2.88c-0.22-1.15,0.28-1.84,1.18-2.4
		c0.93-0.59,1.79-0.52,2.69,0.11c2.09,1.46,3.17,3.38,2.94,5.96c-0.12,1.36-0.24,2.73-0.43,4.09c-0.26,1.83,0.51,3.12,2,4.07
		c2.03,1.3,4.55,1.12,6.5-0.42c0.63-0.49,1.3-0.96,2-1.32c1.15-0.59,2.18-0.33,3.04,0.61c1.1,1.2,1.96,4.39,0.47,6.33
		c-2.09,2.69-4.37,5.08-7.91,5.99c-2.41,0.62-4.83,1.2-7.27,1.7c-3.17,0.65-5.94,1.98-8.26,4.25c-1.56,1.52-3.15,3-4.68,4.55
		c-1.94,1.96-3.49,4.22-4.81,6.64c-0.95,1.73-2.13,3.21-3.88,4.2c-1.17,0.66-1.92,1.74-2.47,2.91c-0.74,1.57-1.75,2.89-2.99,4.07
		c-0.29,0.28-0.6,0.56-0.81,0.89c-0.41,0.65-1.39,1.04-1.13,2c0.28,1.01,0.76,1.9,1.73,2.52c1.58,1.01,3.26,1.82,5.06,2.25
		c2.2,0.53,4.31,1.29,6.44,2.05c0.98,0.35,1.99,0.65,3,0.9c2.92,0.72,4.91,2.68,6.66,4.94c0.64,0.82,0.71,1.78-0.16,2.62
		c-0.22,0.22-0.34,0.54-0.52,0.81c-0.34,0.52-0.81,0.75-1.44,0.68c-0.96-0.11-1.92-0.22-2.89-0.29c-0.59-0.05-1.11-0.21-1.5-0.66
		c-0.46-0.53-1.05-0.65-1.72-0.71c-0.53-0.05-1.16-0.21-1.53-0.56c-0.87-0.79-1.88-1.18-2.95-1.57c-2.57-0.92-5.11-1.94-7.67-2.92
		c-1.01-0.34-1.92-1.16-3.51-0.55C332.78,529.83,333.78,530.34,334.93,529.94z"/>
	<path class="st0" d="M296.87,222.69c6.3,0.07,12.58,0.31,18.84,0.93c5.3,0.52,10.53,1.48,15.74,2.56c5.6,1.16,11.19,2.4,16.75,3.7
		c5.8,1.36,11.54,2.96,17.26,4.64c5.11,1.51,10.13,3.24,14.98,5.43c2.65,1.19,5.22,2.52,7.62,4.18c1.95,1.35,2.64,3.17,2.36,5.43
		c-0.33,2.68-2.96,4.8-5.64,4.61c-1.1-0.08-1.96-0.69-2.88-1.17c-2.65-1.37-5.26-2.81-7.97-4.04c-5.15-2.34-10.58-3.9-16.02-5.41
		c-11.26-3.14-22.65-5.76-34.13-7.93c-5.95-1.13-11.96-1.74-18.02-1.89c-3.87-0.1-7.73-0.27-11.6-0.23
		c-8.15,0.08-16.27,0.6-24.35,1.67c-4.95,0.65-9.92,1.26-14.85,2.06c-5.97,0.96-11.89,2.19-17.7,3.9
		c-7.43,2.19-14.71,4.77-21.74,8.07c-11.26,5.3-22.14,11.23-32.17,18.62c-3.57,2.63-7.15,5.24-10.6,8.02
		c-2.38,1.92-4.58,4.06-6.81,6.16c-3.17,2.99-6.31,5.99-9.74,8.69c-3.05,2.41-5.63,5.3-8.16,8.23c-3.11,3.6-6.18,7.23-9.25,10.86
		c-0.58,0.68-1.17,1.31-2.04,1.65c-2.19,0.85-4.37,0.31-5.9-1.5c-1.51-1.79-1.7-4.32-0.36-6.29c0.77-1.13,1.7-2.15,2.6-3.18
		c3.51-4,6.98-8.02,10.57-11.94c1.85-2.02,3.87-3.87,5.89-5.73c3.14-2.89,6.4-5.65,9.5-8.58c5.28-4.99,10.91-9.54,16.75-13.86
		c5.65-4.17,11.41-8.16,17.53-11.58c4.43-2.48,8.98-4.74,13.48-7.08c1.43-0.74,2.89-1.42,4.34-2.13c8.08-3.92,16.51-6.86,25.17-9.17
		c6.31-1.68,12.69-3.03,19.16-3.93c4.95-0.69,9.88-1.5,14.83-2.1c4-0.48,8.02-0.81,12.03-1.05
		C287.2,223,292.04,222.88,296.87,222.69z"/>
	<path class="st0" d="M156.19,473.98c-0.91-0.91-1.4-1.43-1.92-1.91c-1.43-1.32-2.73-2.74-3.79-4.38c-1.84-2.85-3.02-6.03-4.4-9.11
		c-0.67-1.5-0.41-3.16-0.33-4.78c0.15-2.94,1.07-5.69,2.08-8.41c0.22-0.59,0.64-1.11,1.05-1.61c0.77-0.93,1.46-1.86,1.95-3.01
		c0.35-0.82,1.23-1.44,1.95-2.07c0.85-0.74,1.88-1.28,2.66-2.08c2.18-2.19,4.9-3.02,7.85-3.32c3.42-0.34,6.76,0.26,10.04,1.08
		c1.39,0.35,2.7,1.07,3.69,2.21c1.53,1.76,3.11,3.49,4.58,5.31c0.71,0.87,1.12,1.89,1.2,3.1c0.07,1.09,0.59,2.15,0.79,3.25
		c0.2,1.1,0.02,2.31,0.41,3.32c1.11,2.88,0.9,5.7-0.04,8.51c-0.53,1.6-1.19,3.15-2.15,4.58c-0.85,1.26-1.46,2.68-2.28,3.97
		c-0.42,0.66-1,1.25-1.61,1.75c-0.8,0.66-1.76,1.15-2.55,1.82c-0.85,0.73-1.67,1.53-2.34,2.42c-1.03,1.36-2.37,2.2-3.94,2.65
		c-2.35,0.68-4.78,0.69-7.2,0.52c-0.54-0.04-1.11-0.25-1.6-0.51c-0.69-0.36-1.37-0.49-2.08-0.15c-1.98,0.96-4.08,0.84-6.17,0.65
		c-6.18-0.57-12-2.31-17.39-5.45c-1.11-0.65-2.27-1.24-3.35-1.94c-3.08-1.99-6.67-2.82-9.95-4.34c-1.22-0.57-2.41-0.25-3.42,0.49
		c-1.35,0.99-2.29,2.3-2.17,4.09c0.07,0.96,0.19,1.92,0.36,2.87c0.19,1.03,0.44,2.05,0.71,3.06c0.62,2.34,2.24,3.54,4.63,3.3
		c0.94-0.09,1.87-0.45,2.79-0.74c0.77-0.24,1.49-0.61,2.26-0.84c0.72-0.21,1.29,0.38,1.08,1.12c-0.15,0.53-0.35,1.1-0.68,1.52
		c-0.5,0.62-1.07,1.23-1.73,1.66c-3.47,2.26-7.25,3.86-11.24,4.93c-1.15,0.31-2.38,0.4-3.59,0.45c-1.15,0.05-2.22,0.3-3.26,0.77
		c-4.5,2.03-7.97,5.11-10.01,9.69c-0.62,1.4-1.26,2.79-1.92,4.18c-0.49,1.04-0.69,2.13-0.69,3.28c0,1.28-0.14,2.55-0.62,3.91
		c-0.52-0.15-1.04-0.16-1.38-0.42c-0.99-0.74-1.64-1.77-2.04-2.94c-1.04-3.04-1.22-6.18-0.67-9.31c0.32-1.83,1.23-3.49,2.46-4.92
		c2.47-2.87,5.01-5.68,8.12-7.9c0.99-0.71,2-1.34,3.17-1.71c1-0.32,1.99-0.67,2.94-1.11c1.25-0.58,1.98-1.53,2.15-2.98
		c0.19-1.55,0.08-3.06-0.23-4.56c-0.18-0.86-0.45-1.71-0.71-2.56c-0.52-1.7-0.88-3.42-1.25-5.15c-0.78-3.7-1.74-7.37-2.8-11.01
		c-0.64-2.2-1.84-4.08-4.01-5.23c-0.91-0.48-1.77-0.7-2.76-0.63c-1.61,0.1-3.22,0.22-4.83,0.27c-1.48,0.04-2.88-0.35-4.14-1.13
		c-0.47-0.29-0.9-0.68-1.27-1.1c-0.61-0.69-0.32-1.62,0.57-1.93c0.3-0.1,0.63-0.14,0.94-0.2c1.26-0.24,2.52-0.51,3.79-0.72
		c0.79-0.13,1.6-0.25,2.4-0.22c1.62,0.06,3.22,0.03,4.79-0.44c1.65-0.49,3.33-0.59,5.03-0.45c1.83,0.15,3.54-0.26,5.11-1.15
		c1.74-0.99,3.57-1.32,5.56-1.36c2.89-0.05,5.78-0.37,8.68-0.52c1.12-0.06,2.26-0.01,3.38,0.1c2.86,0.29,5.19,1.68,7.17,3.68
		c1.57,1.6,1.96,3.68,1.93,5.81c-0.02,1.54-0.41,3-1.27,4.35c-0.95,1.5-1.83,3.01-3.12,4.28c-1.16,1.13-0.99,2.17,0.31,3.23
		c1.26,1.03,2.61,1.92,4.2,2.32c4.11,1.04,7.44,3.39,10.5,6.19c0.9,0.83,1.81,1.64,2.98,2.01
		C151.54,473.06,153.46,473.95,156.19,473.98z M156.16,442.35c0.42,0.89,0.54,1.76,0.04,2.59c-0.75,1.26-0.64,2.63-0.5,3.99
		c0.14,1.36,0.27,2.72,0.43,4.07c0.09,0.8,0.22,1.59,0.33,2.39c0.18,1.23,0.61,2.3,1.56,3.18c0.78,0.71,1.26,1.65,1.51,2.7
		c0.47,1.95,1.66,3.48,3.07,4.82c2.41,2.3,6.07,2.56,8.62,0.63c1.24-0.93,2.12-2.19,2.93-3.49c0.37-0.59,0.39-1.22,0.15-1.86
		c-0.34-0.87-0.33-1.74,0.01-2.59c0.38-0.95,0.28-1.85,0.02-2.82c-0.26-1-0.36-2.05-0.45-3.08c-0.14-1.45-0.31-2.89-0.93-4.22
		c-1.2-2.57-2.81-4.89-4.64-7.04c-1.25-1.46-2.88-2.31-4.92-1.99c-1.19,0.19-2.41,0.27-3.58,0.54
		C158.48,440.5,157.17,440.93,156.16,442.35z M113.41,461.05c0.95,0.68,1.9,0.72,2.95,0.22c0.65-0.31,1.36-0.49,2.05-0.7
		c2.52-0.77,4.17-2.29,4.42-5.05c0.09-1.04,0.54-1.83,1.52-2.29c0.28-0.13,0.51-0.35,0.7-0.48c0.05-0.27,0.11-0.43,0.1-0.59
		c-0.07-1.69-0.94-2.85-2.37-3.67c-1.6-0.92-3.32-1.65-4.51-3.17c-0.18-0.23-0.54-0.43-0.82-0.44c-1.53-0.05-3.07,0-4.42,0.89
		c-0.56,0.37-0.97,0.85-0.98,1.56c-0.01,1.04-0.13,2.11,0.03,3.13c0.21,1.43,0.57,2.84,0.97,4.23c0.39,1.34,0.64,2.64,0.25,4.03
		C113.08,459.49,112.97,460.3,113.41,461.05z"/>
	<path class="st0" d="M381.23,551.69c2.56-0.54,4.59-1.55,6.66-2.44c1.79-0.77,3.63-1.34,5.57-1.51c0.86-0.08,1.76,0.06,2.61,0.24
		c0.91,0.2,1.35,0.9,1.13,1.82c-0.17,0.68-0.45,1.41-0.89,1.94c-0.86,1.06-1.77,2.11-2.83,2.96c-1.94,1.56-4.02,2.97-6.02,4.46
		c-1.14,0.85-2.42,1.22-3.82,1.32c-0.95,0.07-1.88,0.28-2.99,0.45c-0.39-0.31-0.93-0.73-1.58-1.25c-0.53,0.49-1.03,0.88-1.44,1.35
		c-1.32,1.55-2.23,3.34-3.11,5.16c-0.66,1.37-1.34,2.75-2.12,4.06c-1.17,1.97-3,2.89-5.27,2.82c-2.42-0.07-4.84-0.15-7.24-0.39
		c-1.26-0.12-2.49-0.6-3.94-0.97c-0.85-1.13-1.82-2.4-2.76-3.7c-0.23-0.32-0.4-0.7-0.55-1.07c-0.26-0.66,0.18-1.15,0.99-1.16
		c0.24,0,0.47,0.05,0.89,0.09c0.31-0.36,0.64-0.83,1.05-1.2c1.14-1.01,2.47-1.55,4-1.29c4.08,0.67,3.94,0.11,7.08-1.48
		c0.87-0.44,1.73-0.84,2.72-0.94c0.47-0.05,0.93-0.21,1.33-0.31c0.87-1.48-0.58-2-1.14-2.89c1.53-2.19,1.71-4.68,1.68-7.18
		c-0.01-1.1,0.16-2.01,0.82-2.93c0.79-1.11,1.36-2.37,2.09-3.53c0.43-0.67,0.91-1.34,1.5-1.87c0.99-0.91,2.17-0.77,2.89,0.34
		c0.48,0.73,0.91,1.54,1.14,2.38c0.43,1.54,0.71,3.13,1.05,4.7C380.9,550.3,381.05,550.91,381.23,551.69z"/>
	<path class="st0" d="M257.21,483.53c0.34-1.26,0.74-2.07,1.66-2.61c0.46-0.27,0.75-0.82,1.13-1.24c0.94-1.02,2.09-1.75,3.37-2.28
		c3.29-1.36,6.71,0.02,7.82,3.4c0.88,2.66,1.42,5.43,2.01,8.17c0.14,0.67-0.01,1.45-0.2,2.13c-0.99,3.66-2.39,7.16-4.15,10.52
		c-0.41,0.79-0.89,1.53-1.64,2.05c-1.02,0.7-2.2,0.24-2.35-0.97c-0.11-0.87-0.22-1.78-0.12-2.64c0.12-1.09-0.12-2.07-0.44-3.07
		c-0.02-0.08-0.06-0.15-0.09-0.23c-0.95-3.04-2.3-5.84-4.83-7.91c-0.88-0.72-1.32-1.57-1.26-2.71
		C258.18,485.14,257.95,484.22,257.21,483.53z"/>
</g>
</svg>
